<?xml version="1.0" encoding="utf-8"?>
<!-- Designed by Vexels.com - 2016 All Rights Reserved - https://vexels.com/terms-and-conditions/  -->

<svg version="1.0" id="Capa_1" xmlns="http://www.w3.org/2000/svg" xmlns:xlink="http://www.w3.org/1999/xlink" x="0px" y="0px"
	 width="1200px" height="1200px" viewBox="0 0 1200 1200" enable-background="new 0 0 1200 1200" xml:space="preserve">
<g>
	<g>
		<defs>
			<path id="SVGID_1_" d="M1020.387,699.05c-10.999,232.17-208.128,411.471-440.306,400.469
				C347.91,1088.518,168.612,891.38,179.613,659.207c11.001-232.177,208.136-411.475,440.31-400.472
				C852.099,269.736,1031.385,466.872,1020.387,699.05z"/>
		</defs>
		<use xlink:href="#SVGID_1_"  overflow="visible" fill="#562D3B"/>
		<clipPath id="SVGID_2_">
			<use xlink:href="#SVGID_1_"  overflow="visible"/>
		</clipPath>
	</g>
	<g>
		<defs>
			<path id="SVGID_3_" d="M927.585,445.299V100H330.746v280.008c-77.062,69.374-127.459,168.312-132.754,280.069
				c-10.521,222.025,160.938,410.54,382.959,421.061c222.029,10.523,410.543-160.941,421.06-382.959
				C1006.46,604.236,978.335,516.298,927.585,445.299z"/>
		</defs>
		<clipPath id="SVGID_4_">
			<use xlink:href="#SVGID_3_"  overflow="visible"/>
		</clipPath>
		<g clip-path="url(#SVGID_4_)">
			<g>
				<path fill-rule="evenodd" clip-rule="evenodd" fill="#F4D8D0" d="M746.433,1049.277c1.219-1.807,2.309-3.707,3.382-5.606
					c1.399-2.479,2.675-5.029,4.093-7.497c2.901-5.062,5.916-10.06,8.782-15.145c1.536-2.723,2.866-5.569,4.262-8.376
					c0.422-0.851,0.736-1.749,1.113-2.625c1.7-3.952,3.476-7.873,5.091-11.861c1.944-4.793,3.849-9.607,5.574-14.479
					c0.674-1.908,0.685-4.038,1.224-6.004c1.549-5.679,1.665-11.408,0.524-17.125c-0.602-3.014-1.715-5.923-2.599-8.893
					c0.549-0.139,1.258-0.307,1.961-0.498c8.426-2.351,13.27-11.491,9.717-19.466c-2.027-4.547-4.766-8.994-8.074-12.688
					c-3.31-3.7-7.714-6.427-11.667-9.548c-3.888-3.072-7.883-6.009-11.687-9.178c-3.419-2.849-6.694-5.878-9.936-8.933
					c-3.279-3.092-6.519-6.234-9.629-9.494c-2.973-3.112-5.746-6.412-8.624-9.612c-2.773-3.09-5.588-6.14-8.346-9.245
					c-1.986-2.232-4.215-4.328-5.796-6.825c-3.817-6.033-7.381-12.23-10.927-18.431c-1.804-3.16-3.319-6.484-5.027-9.707
					c-2.219-4.182-4.493-8.333-6.76-12.489c-1.013-1.86-2.074-3.691-3.087-5.547c-0.23-0.429-0.496-0.975-0.487-1.36
					c0.28-13.592,25.116-100.94,32.059-116.432c1.552-3.465,1.548-3.465,5.375-2.917c0.507,0.071,1.019,0.097,1.531,0.135
					c2.114,0.172,4.609-0.303,6.248,0.67c2.019,1.201,3.721,0.865,5.322,0.184c3.655-1.563,7.442-1.422,11.233-1.449
					c4.656-0.029,9.214-0.526,13.494-2.49c3.994-1.833,7.918-4.021,9.166-8.53c0.812-2.943,2.606-4.655,4.74-6.46
					c3.232-2.734,6.46-5.525,9.342-8.621c4.461-4.795,7.314-10.51,8.699-16.963c0.178-0.827,1.11-1.762,1.925-2.13
					c3.11-1.418,6.346-2.552,9.47-3.939c2.266-1.006,4.425-2.247,6.635-3.371c1.035-0.529,2.035-1.196,3.131-1.524
					c4.702-1.411,8.61-3.997,11.839-7.659c0.433-0.491,0.847-1.082,1.402-1.362c9.074-4.532,12.02-14.008,17.373-21.534
					c0.649-0.916,0.826-2.185,1.131-3.317c0.7-2.596,1.202-5.255,2.046-7.805c1.134-3.43,2.724-17.666,2.232-21.258
					c-0.147-1.077-0.096-2.183-0.157-3.276c-0.136-2.544-0.329-5.089-0.402-7.638c-0.019-0.707,0.066-1.638,0.497-2.101
					c6.679-7.173,13.48-14.234,20.136-21.429c5.766-6.236,10.073-13.483,13.879-21.022c2.558-5.07,4.816-10.294,7.304-15.4
					c1.597-3.277,3.409-6.452,5.045-9.709c0.652-1.303,1.145-2.693,1.612-4.079c0.931-2.753,1.943-5.49,2.651-8.301
					c1.356-5.367,2.564-10.773,3.743-16.181c0.277-1.271,0.065-2.645,0.307-3.926c0.925-4.866,1.97-9.71,2.922-14.569
					c0.665-3.389-0.655-17.137-1.864-20.391c-0.352-0.953-0.675-1.944-0.817-2.946c-0.834-5.895-3.784-11.012-5.951-16.416
					c-0.08-0.199-0.261-0.357-0.363-0.55c-1.84-3.483-3.606-7.007-5.529-10.442c-2.138-3.818-3.869-8.068-6.789-11.184
					c-3.057-3.269-3.796-6.939-4.278-10.869c-0.369-3.019-4.025-17.575-5.466-20.232c-0.036-0.063-0.065-0.132-0.11-0.191
					c-4.089-5.657-8.578-11.335-14.696-14.444c-5.587-2.837-12.216-3.639-18.407-5.262c-1.395-0.366-2.871-0.424-4.315-0.592
					c-1.477-0.175-1.901-1.035-1.817-2.427c0.461-7.686-1.548-14.917-4.28-21.968c-1.635-4.221-3.45-8.387-5.455-12.447
					c-1.97-3.993-4.227-7.849-6.458-11.708c-2.303-3.986-4.708-7.914-7.098-11.846c-2.503-4.118-4.857-8.344-7.626-12.277
					c-2.554-3.629-5.43-7.061-8.417-10.351c-3.628-3.997-7.275-8.045-11.37-11.538c-4.555-3.88-9.479-7.38-14.508-10.635
					c-4.734-3.064-7.299-7.3-8.781-12.56c-1.866-6.629-5.117-12.597-9.462-17.94c-4.232-5.205-8.928-10.088-12.675-15.617
					c-3.213-4.74-8.05-7.624-11.654-11.847c-1.324-1.555-3.461-2.413-5.221-3.597c-4.771-3.208-9.487-6.506-14.328-9.598
					c-3.438-2.197-7.03-4.157-10.588-6.157c-4.638-2.608-9.26-5.262-14.003-7.666c-1.723-0.876-3.787-1.064-5.682-1.618
					c-5.028-1.468-9.97-3.398-15.095-4.339c-6.5-1.191-13.138-1.667-19.733-2.279c-2.162-0.199-4.374,0.216-6.564,0.233
					c-4.889,0.037-9.776-0.11-14.66,0.025c-4.438,0.123-8.869,0.485-13.299,0.812c-4.652,0.344-9.297,0.805-13.95,1.157
					c-2.546,0.192-5.108,0.173-7.648,0.415c-4.416,0.419-8.848,0.782-13.219,1.508c-4.88,0.812-9.747,1.808-14.526,3.081
					c-4.857,1.293-9.605,3.006-14.39,4.563c-2.987,0.971-5.979,1.934-8.934,2.999c-3.156,1.137-6.279,2.373-9.403,3.595
					c-4.282,1.676-8.595,3.285-12.818,5.1c-4.138,1.78-8.254,3.647-12.24,5.74c-3.026,1.589-5.887,3.514-8.727,5.43
					c-3.2,2.16-6.404,4.342-9.402,6.767c-2.883,2.334-5.671,4.838-8.188,7.557c-1.795,1.936-3.066,4.356-4.581,6.551
					c-0.347,0.502-0.655,1.246-1.136,1.405c-2.493,0.815-5.049,1.435-7.557,2.205c-2.161,0.662-4.292,1.422-6.423,2.173
					c-0.892,0.314-1.757,0.705-2.626,1.082c-5.414,2.343-11.042,4.301-16.177,7.151c-5.586,3.099-10.76,6.965-16.017,10.635
					c-1.842,1.284-3.364,3.02-5.087,4.485c-4.162,3.536-8.482,6.894-12.471,10.612c-1.667,1.552-2.345,4.16-4.01,5.715
					c-4.294,4.012-6.223,9.469-8.576,14.456c-2.682,5.683-3.416,12.177-3.382,18.584c0.006,1.23,0.594,2.493,0.444,3.684
					c-0.496,3.979,0.199,7.663,1.719,11.37c0.735,1.783,1.098,4.09,0.618,5.891c-0.471,1.772-2.219,3.204-3.407,4.787
					c-3.851,5.122-7.703,10.243-11.55,15.364c-0.351,0.468-0.633,0.991-1.007,1.44c-4.461,5.358-6.135,12.026-8.614,18.314
					c-0.4,1.013-0.699,2.064-1.063,3.092c-0.705,1.99-1.429,3.974-2.132,5.966c-0.46,1.295-0.932,2.589-1.34,3.901
					c-0.626,2.02-1.203,4.051-1.798,6.082c-0.305,1.045-0.656,2.082-0.891,3.142c-0.668,3.047-1.456,6.08-1.884,9.161
					c-0.449,3.239-0.507,6.531-0.812,9.794c-0.04,0.419-0.46,0.887-0.826,1.178c-3.928,3.129-7.959,6.13-11.8,9.358
					c-3.794,3.184-7.454,6.537-11.061,9.935c-1.042,0.983-1.692,2.38-2.541,3.572c-0.552,0.769-1.167,1.495-1.711,2.267
					c-3.147,4.479-6.426,8.873-9.357,13.489c-1.509,2.375-2.314,5.185-3.567,7.735c-1.495,3.042-1.804,6.238-2.001,9.581
					c-0.356,6.083-0.836,12.108,1.793,17.863c0.117,0.251,0.062,0.581,0.098,0.872c0.494,4.099,6.344,16.278,9.245,19.153
					c0.778,0.773,1.674,1.422,2.503,2.143c0.493,0.429,1.061,0.82,1.421,1.347c3.709,5.449,9.696,8.118,14.677,12.005
					c1.931,1.506,4.159,2.724,6.409,3.712c2.914,1.278,5.973,2.234,8.995,3.25c1.148,0.385,2.372,0.547,3.92,0.89
					c-1.572,1.878-2.806,3.306-3.988,4.772c-2.697,3.352-5.465,6.652-8.027,10.106c-3.213,4.327-6.407,8.685-9.302,13.227
					c-1.792,2.812-3.114,5.946-4.464,9.016c-1.71,3.886-1.92,7.928-0.835,12.055c0.31,1.185,0.486,2.443,0.484,3.667
					c-0.01,4.692,1.563,8.743,4.622,12.272c0.713,0.822,1.442,1.685,1.9,2.658c1.718,3.638,4.282,6.47,7.815,8.368
					c1.13,0.609,1.208,1.177,0.652,2.246c-1.6,3.08-2.035,6.376-1.647,9.822c0.531,4.712,1.069,9.428,1.416,14.156
					c0.269,3.685,1.283,7.035,3.335,10.105c0.521,0.779,0.926,1.674,1.194,2.572c1.73,5.81,5.495,9.74,10.996,12.113
					c0.534,0.232,1.132,0.4,1.572,0.758c3.352,2.701,6.984,5.144,9.927,8.24c4.57,4.801,10.662,7.139,16.02,10.625
					c1.91,1.243,2.933,2.154,3.219,4.452c0.347,2.8,1.616,5.476,2.015,8.273c0.723,5.06,2.639,9.402,6.369,12.936
					c0.943,0.894,1.876,1.873,2.539,2.975c2.221,3.711,5.327,6.37,9.145,8.307c2.275,1.155,4.457,2.488,6.73,3.647
					c2.468,1.258,5.058,2.287,7.477,3.627c5.82,3.225,12.21,4.729,18.57,6.329c0.76,0.192,1.607,0.016,2.411,0.073
					c0.869,0.058,1.756,0.106,2.603,0.301c6.018,1.36,12.07,0.363,18.107,0.287c0.288-0.004,0.57-0.157,0.858-0.188
					c3.299-0.354,6.597-0.699,10.022-1.061c-0.153,1.743-0.296,3.373-0.444,5.042c2.409-0.692,3.365-0.511,3.382,1.004
					c0.031,2.733,0.329,5.828-0.788,8.139c-3.084,6.385-6.72,12.518-10.362,18.613c-4.86,8.137-11.832,13.853-20.693,17.253
					c-1.761,0.674-3.501,1.402-5.232,2.152c-1.421,0.613-2.771,1.426-4.231,1.909c-1.091,0.362-2.313,0.305-3.467,0.498
					c-5.893,0.988-11.829,1.787-17.66,3.067c-5.248,1.15-10.392,2.798-15.555,4.326c-0.874,0.257-1.595,1.017-2.412,1.506
					c-0.687,0.411-1.399,0.781-2.118,1.132c-3.679,1.781-7.547,3.251-11.008,5.387c-7.381,4.549-15.655,6.768-23.685,9.627
					c-2.532,0.904-5.182,1.619-7.839,2.015c-6.129,0.92-12.298,1.577-18.446,2.382c-1.085,0.141-2.135,0.52-3.212,0.723
					c-3.512,0.661-7.034,1.28-10.546,1.937c-4.8,0.898-9.599,1.793-14.391,2.733c-4.141,0.812-8.246,1.829-12.41,2.479
					c-3.599,0.568-7.269,0.666-10.889,1.121c-3.835,0.482-7.638,1.199-11.469,1.703c-5.628,0.737-11.289,0.823-16.95,1.789
					c-6.586,1.121-10.992,4.328-14.433,9.594c-3.064,4.689-2.263,10.684,1.946,14.347c0.774,0.675,1.656,1.272,2.257,2.077
					c0.473,0.635,0.855,1.541,0.834,2.313c-0.088,3.335-0.384,6.666-0.518,10.001c-0.101,2.484-0.042,4.965-0.098,7.451
					c-0.1,4.594-0.312,9.192-0.319,13.791c-0.003,1.962,0.428,3.915,0.601,5.878c0.21,2.4,0.355,4.804,0.528,7.205
					c0.292,4.003,0.627,8.001,0.861,12.005c0.343,5.894,0.587,11.795,0.924,17.689c0.135,2.32,0.307,4.644,0.635,6.944
					c0.875,6.135,1.761,12.27,2.813,18.376c0.48,2.786,1.138,5.584,2.101,8.234c2.383,6.575,4.985,13.068,7.51,19.586
					c0.367,0.949,0.802,1.873,1.194,2.811c2.583,6.188,5.163,12.38,7.752,18.564c0.084,0.197,0.272,0.352,0.362,0.548
					c0.599,1.325,1.169,2.66,1.78,3.981c2.876,6.212,5.763,12.425,8.66,18.633c0.183,0.387,0.564,0.686,0.762,1.07
					c2.716,5.323,5.717,10.406,9.432,15.169c2.281,2.919,4.069,6.197,7.018,8.603c0.732,0.601,1.37,1.535,1.645,2.44
					c1.976,6.526,4.052,12.969,8.535,18.345c2.279,2.733,4.165,5.808,6.583,8.398c3.87,4.149,8.03,8.026,12.075,12.014
					c0.153,0.15,0.373,0.232,0.556,0.352c3.799,2.581,7.556,5.228,11.407,7.73c4.226,2.745,8.482,5.452,12.827,8
					c2.954,1.734,6.046,3.245,9.151,4.691c1.578,0.736,3.35,1.03,4.985,1.654c4.488,1.716,8.905,3.629,13.439,5.215
					c3.499,1.229,7.137,2.063,10.702,3.11c0.475,0.137,0.937,0.438,1.317,0.765c4.285,3.685,9.908,4.563,14.757,7.061
					c0.191,0.099,0.422,0.12,0.634,0.175c3.95,1.028,7.892,2.081,11.849,3.07c4.876,1.219,9.756,2.435,14.656,3.563
					c3.262,0.75,6.551,1.4,9.843,2.01c4.302,0.792,8.608,1.581,12.933,2.221c6.273,0.929,12.562,1.761,18.852,2.572
					c3.547,0.454,7.106,1.059,10.663,1.088c3.616,0.037,7.234-0.622,10.859-0.841c2.773-0.168,5.064-1.174,7.116-3.036
					c0.657-0.599,1.775-0.798,2.718-0.936c1.186-0.172,2.411-0.097,3.659-0.128c-0.211,0.455-0.453,0.907-0.64,1.382
					c-2.393,6.093-1.806,11.839,2.341,16.97c3.916,4.844,9.123,6.575,15.271,5.88c4.918-0.559,9.853-0.978,14.787-1.384
					c3.636-0.297,7.283-0.429,10.92-0.717c3.637-0.283,7.261-0.737,10.899-0.995c6.118-0.434,12.244-0.774,18.369-1.148
					c2.621-0.159,5.247-0.257,7.865-0.46c3.998-0.31,7.998-0.644,11.991-1.042c6.213-0.612,11.601-3.317,16.527-6.936
					c1.225-0.902,2.154-2.462,2.74-3.917c0.88-2.183,1.341-4.543,1.915-6.602c2.927-0.338,5.872-0.67,8.116-0.925
					c-2.298,4.038-4.886,8.493-7.359,13.013c-0.585,1.068-0.74,2.362-1.165,3.525c-0.436,1.201-0.78,2.495-1.474,3.539
					c-3.11,4.68-0.228,11.275,5.341,11.244c2.96-0.015,5.732,0.611,8.597,0.805c2.023,0.135,4.085-0.4,6.115-0.29
					c5.218,0.286,18.897-3.151,23.287-6.02c0.429-0.281,0.815-0.63,1.253-0.891c1.498-0.889,3.09-1.634,4.498-2.643
					c5.79-4.147,11.539-8.358,17.271-12.588c1.166-0.858,2.245-1.845,3.288-2.853c4.817-4.647,9.623-9.304,14.389-14.002
					c1.288-1.272,2.459-2.67,3.61-4.07c3.978-4.839,7.945-9.689,11.867-14.577c0.812-1.017,1.371-2.232,2.108-3.313
					C739.122,1059.979,742.815,1054.652,746.433,1049.277z"/>
				<path fill="#AE612B" d="M729.674,262.449c30.194,25.774,45.597,48.757,50.746,80.328c5.146,31.57,13.636,94.462,9.179,140.351
					c-4.459,45.889-32.514,154.078-62.025,184.276c-2.354,8.028-3.686,15.313-4.259,21.906c0.677-0.431,1.626-0.303,3.632-0.015
					c0.507,0.071,1.019,0.097,1.531,0.135c2.114,0.172,4.609-0.303,6.248,0.67c2.019,1.201,3.721,0.865,5.322,0.184
					c3.655-1.563,7.442-1.422,11.233-1.449c4.656-0.029,9.214-0.526,13.494-2.49c3.994-1.833,7.918-4.021,9.166-8.53
					c0.812-2.943,2.606-4.655,4.74-6.46c3.232-2.734,6.46-5.525,9.342-8.621c4.461-4.795,7.314-10.51,8.699-16.963
					c0.178-0.827,1.11-1.762,1.925-2.13c3.11-1.418,6.346-2.552,9.47-3.939c2.266-1.006,4.425-2.247,6.635-3.371
					c1.035-0.529,2.035-1.196,3.131-1.524c4.702-1.411,8.61-3.997,11.839-7.659c0.433-0.491,0.847-1.082,1.402-1.362
					c9.074-4.532,12.02-14.008,17.373-21.534c0.649-0.916,0.826-2.185,1.131-3.317c0.7-2.596,1.202-5.255,2.046-7.805
					c1.134-3.43,2.724-17.666,2.232-21.258c-0.147-1.077-0.096-2.183-0.157-3.276c-0.136-2.544-0.329-5.089-0.402-7.638
					c-0.019-0.707,0.066-1.638,0.497-2.101c6.679-7.173,13.48-14.234,20.136-21.429c5.766-6.236,10.073-13.483,13.879-21.022
					c2.558-5.07,4.816-10.294,7.304-15.4c1.597-3.277,3.409-6.452,5.045-9.709c0.652-1.303,1.145-2.693,1.612-4.079
					c0.931-2.753,1.943-5.49,2.651-8.301c1.356-5.367,2.564-10.773,3.743-16.181c0.277-1.271,0.065-2.645,0.307-3.926
					c0.925-4.866,1.97-9.71,2.922-14.569c0.665-3.389-0.655-17.137-1.864-20.391c-0.352-0.953-0.675-1.944-0.817-2.946
					c-0.834-5.895-3.784-11.012-5.951-16.416c-0.08-0.199-0.261-0.357-0.363-0.55c-1.84-3.483-3.606-7.007-5.529-10.442
					c-2.138-3.818-3.869-8.068-6.789-11.184c-3.057-3.269-3.796-6.939-4.278-10.869c-0.369-3.019-4.025-17.575-5.466-20.232
					c-0.036-0.063-0.065-0.132-0.11-0.191c-4.089-5.657-8.578-11.335-14.696-14.444c-5.587-2.837-12.216-3.639-18.407-5.262
					c-1.395-0.366-2.871-0.424-4.315-0.592c-1.477-0.175-1.901-1.035-1.817-2.427c0.461-7.686-1.548-14.917-4.28-21.968
					c-1.635-4.221-3.45-8.387-5.455-12.447c-1.97-3.993-4.227-7.849-6.458-11.708c-2.303-3.986-4.708-7.914-7.098-11.846
					c-2.503-4.118-4.857-8.344-7.626-12.277c-2.554-3.629-5.43-7.061-8.417-10.351c-3.628-3.997-7.275-8.045-11.37-11.538
					c-4.555-3.88-9.479-7.38-14.508-10.635c-4.734-3.064-7.299-7.3-8.781-12.56c-1.866-6.629-5.117-12.597-9.462-17.94
					c-4.232-5.205-8.928-10.088-12.675-15.617c-3.213-4.74-8.05-7.624-11.654-11.847c-1.324-1.555-3.461-2.413-5.221-3.597
					c-4.771-3.208-9.487-6.506-14.328-9.598c-3.438-2.197-7.03-4.157-10.588-6.157c-4.638-2.608-9.26-5.262-14.003-7.666
					c-1.723-0.876-3.787-1.064-5.682-1.618c-5.028-1.468-9.97-3.398-15.095-4.339c-6.5-1.191-13.138-1.667-19.733-2.279
					c-2.162-0.199-4.374,0.216-6.564,0.233c-4.889,0.037-9.776-0.11-14.66,0.025c-4.438,0.123-8.869,0.485-13.299,0.812
					c-4.652,0.344-9.297,0.805-13.95,1.157c-2.546,0.192-5.108,0.173-7.648,0.415c-4.416,0.419-8.848,0.782-13.219,1.508
					c-4.88,0.812-9.747,1.808-14.526,3.081c-4.857,1.293-9.605,3.006-14.39,4.563c-2.987,0.971-5.979,1.934-8.934,2.999
					c-3.156,1.137-6.279,2.373-9.403,3.595c-4.282,1.676-8.595,3.285-12.818,5.1c-4.138,1.78-8.254,3.647-12.24,5.74
					c-3.026,1.589-5.887,3.514-8.727,5.43c-3.2,2.16-6.404,4.342-9.402,6.767c-2.883,2.334-5.671,4.838-8.188,7.557
					c-1.795,1.936-3.066,4.356-4.581,6.551c-0.347,0.502-0.655,1.246-1.136,1.405c-2.493,0.815-5.049,1.435-7.557,2.205
					c-2.161,0.662-4.292,1.422-6.423,2.173c-0.892,0.314-1.757,0.705-2.626,1.082c-5.414,2.343-11.042,4.301-16.177,7.151
					c-5.586,3.099-10.76,6.965-16.017,10.635c-1.842,1.284-3.364,3.02-5.087,4.485c-4.162,3.536-8.482,6.894-12.471,10.612
					c-1.667,1.552-2.345,4.16-4.01,5.715c-4.294,4.012-6.223,9.469-8.576,14.456c-2.682,5.683-3.416,12.177-3.382,18.584
					c0.006,1.23,0.594,2.493,0.444,3.684c-0.496,3.979,0.199,7.663,1.719,11.37c0.735,1.783,1.098,4.09,0.618,5.891
					c-0.471,1.772-2.219,3.204-3.407,4.787c-3.851,5.122-7.703,10.243-11.55,15.364c-0.351,0.468-0.633,0.991-1.007,1.44
					c-4.461,5.358-6.135,12.026-8.614,18.314c-0.4,1.013-0.699,2.064-1.063,3.092c-0.705,1.99-1.429,3.974-2.132,5.966
					c-0.46,1.295-0.932,2.589-1.34,3.901c-0.626,2.02-1.203,4.051-1.798,6.082c-0.305,1.045-0.656,2.082-0.891,3.142
					c-0.668,3.047-1.456,6.08-1.884,9.161c-0.449,3.239-0.507,6.531-0.812,9.794c-0.04,0.419-0.46,0.887-0.826,1.178
					c-3.928,3.129-7.959,6.13-11.8,9.358c-3.794,3.184-7.454,6.537-11.061,9.935c-1.042,0.983-1.692,2.38-2.541,3.572
					c-0.552,0.769-1.167,1.495-1.711,2.267c-3.147,4.479-6.426,8.873-9.357,13.489c-1.509,2.375-2.314,5.185-3.567,7.735
					c-1.495,3.042-1.804,6.238-2.001,9.581c-0.356,6.083-0.836,12.108,1.793,17.863c0.117,0.251,0.062,0.581,0.098,0.872
					c0.494,4.099,6.344,16.278,9.245,19.153c0.778,0.773,1.674,1.422,2.503,2.143c0.493,0.429,1.061,0.82,1.421,1.347
					c3.709,5.449,9.696,8.118,14.677,12.005c1.931,1.506,4.159,2.724,6.409,3.712c2.914,1.278,5.973,2.234,8.995,3.25
					c1.148,0.385,2.372,0.547,3.92,0.89c-1.572,1.878-2.806,3.306-3.988,4.772c-2.697,3.352-5.465,6.652-8.027,10.106
					c-3.213,4.327-6.407,8.685-9.302,13.227c-1.792,2.812-3.114,5.946-4.464,9.016c-1.71,3.886-1.92,7.928-0.835,12.055
					c0.31,1.185,0.486,2.443,0.484,3.667c-0.01,4.692,1.563,8.743,4.622,12.272c0.713,0.822,1.442,1.685,1.9,2.658
					c1.718,3.638,4.282,6.47,7.815,8.368c1.13,0.609,1.208,1.177,0.652,2.246c-1.6,3.08-2.035,6.376-1.647,9.822
					c0.531,4.712,1.069,9.428,1.416,14.156c0.269,3.685,1.283,7.035,3.335,10.105c0.521,0.779,0.926,1.674,1.194,2.572
					c1.73,5.81,5.495,9.74,10.996,12.113c0.534,0.232,1.132,0.4,1.572,0.758c3.352,2.701,6.984,5.144,9.927,8.24
					c4.57,4.801,10.662,7.139,16.02,10.625c1.91,1.243,2.933,2.154,3.219,4.452c0.347,2.8,1.616,5.476,2.015,8.273
					c0.723,5.06,2.639,9.402,6.369,12.936c0.943,0.894,1.876,1.873,2.539,2.975c2.221,3.711,5.327,6.37,9.145,8.307
					c2.275,1.155,4.457,2.488,6.73,3.647c2.468,1.258,5.058,2.287,7.477,3.627c5.82,3.225,12.21,4.729,18.57,6.329
					c0.76,0.192,1.607,0.016,2.411,0.073c0.869,0.058,1.756,0.106,2.603,0.301c6.018,1.36,12.07,0.363,18.107,0.287
					c0.288-0.004,0.57-0.157,0.858-0.188c3.299-0.354,6.597-0.699,10.022-1.061c-0.136,1.55-0.265,3.016-0.395,4.494
					c2.641-3.202,4.298-6.734,4.592-10.629c2.253-29.781-2.207-33.243-2.207-33.243s-22.882-26.835-32.257-65.86
					c-17.221-6.264-21.013-19.661-21.545-21.959c22.773-18.453,21.823-51.319,19.142-72.012c-1.268-9.791-5.46-22.164-10.28-33.946
					l6.144-2.385c0,0,7.225-93.088,19.235-124.659c32.599-7.206,62.942-12.678,76.211-32.257
					c13.268-19.579,18.843-61.472,18.843-61.472S625.224,278.714,729.674,262.449z"/>
			</g>
			<path fill="#BC8475" d="M519.326,660.694c-2.821-1.816-5.417-3.97-8.189-5.863c-0.486-0.332-1.332-0.13-2.013-0.172
				c0.152,0.668,0.101,1.502,0.49,1.981c2.21,2.714,4.149,5.841,6.877,7.906c7.752,5.867,15.781,11.376,23.825,16.844
				c4.385,2.981,9.323,4.883,14.502,6.068c1.511,0.345,3.072,0.473,4.61,0.699c0.142-0.288,0.283-0.577,0.425-0.865
				c-1.588-1.28-3.069-2.723-4.776-3.819C543.181,675.846,531.219,668.324,519.326,660.694z"/>
			<path fill="#7F451D" d="M683.437,341.917c-12.744,2.143-11.661,13.293,1.115,13.815c13.194,0.537,27.63,0.098,40.635-2.009
				c26.429-4.28,35.232,15.632,43.026,36.216c5.607-0.919-2.152-15.5-3.276-18.072c-3.638-8.341-10.384-15.134-17.488-20.969
				C728.961,335.713,704.988,338.309,683.437,341.917C679.583,342.565,685.808,341.52,683.437,341.917z"/>
			<path fill="#281F18" d="M640.801,501.514c-0.295,1.909-0.82,3.816-0.823,5.727c-0.006,2.721,2.236,4.942,4.926,5.326
				c2.492,0.358,5.137-1.26,6.089-3.723c1.639-4.246-2.677-11.093-7.207-11.371c-1.448-0.089-2.474,0.322-2.017,2.178
				c0.149,0.602-0.122,1.308-0.199,1.969C641.313,501.586,641.056,501.55,640.801,501.514z"/>
			<path fill="#BC8475" d="M666.155,404.797c0.366-0.675,0.109-1.685,0.141-2.543c-0.772,0.347-1.822,0.481-2.275,1.071
				c-7.392,9.64-10.457,20.631-9.912,32.683c0.382,8.415,3.744,15.315,11.011,20.193c-0.211-0.48-0.388-0.981-0.64-1.441
				c-4.168-7.645-6.967-15.609-6.036-24.524C659.378,421.255,661.847,412.76,666.155,404.797z"/>
			<path fill="#BC8475" d="M651.779,473.216c-0.139,2.34-0.271,4.871,0.464,7.032c1.688,4.975,4.584,9.421,8.621,12.763
				c4.456,3.687,5.672,8.414,5.387,13.684c-0.209,3.828-1.076,7.62-1.651,11.427c0.212,0.166,0.422,0.333,0.63,0.498
				c1.395-1.957,3.589-3.749,4.037-5.905c1.674-8.014,1.583-15.898-4.561-22.424c-0.699-0.745-1.447-1.458-2.063-2.27
				c-3.253-4.29-6.919-8.367-6.563-14.37c0.042-0.693-1.221-1.995-1.958-2.059C653.351,471.529,651.816,472.583,651.779,473.216z"/>
			<path fill="#281F18" d="M614.368,501.328c-0.248-0.383-1.593-0.495-2.11-0.178c-2.033,1.246-4.18,2.472-5.825,4.153
				c-2.598,2.654-1.991,5.702,1.15,7.721c2.188,1.407,4.05,1.374,5.845-0.106c1.725-1.421,2.145-3.354,0.896-5.733
				c-0.693-1.325-0.768-2.271,0.13-3.523C614.834,503.132,614.748,501.905,614.368,501.328z"/>
			<path fill="#BC8475" d="M591.43,490.964c0.924-3.297,2.173-6.5,3.191-9.774c0.161-0.517-0.15-1.18-0.244-1.773
				c-0.53,0.356-1.236,0.597-1.558,1.087c-0.758,1.156-1.333,2.431-1.981,3.657c-3.351,5.41-5.132,12.268-4.816,17.944
				c0.231,4.157,2.223,7.226,5.772,9.237c0.735,0.415,1.849,0.167,2.789,0.222c-0.378-0.728-0.601-1.606-1.156-2.154
				c-2.831-2.803-4.29-6.117-3.721-10.096C590.109,496.504,590.663,493.696,591.43,490.964z"/>
			<path fill="#7F451D" d="M342.998,436.901c1.315,2.395,2.844,4.7,5.939,6.133c-0.214-1.098-0.314-1.777-0.482-2.441
				c-0.774-3.051-1.649-6.078-2.339-9.147c-3.052-13.61,0.17-26.236,6.099-38.434c0.737-1.514,1.721-3.361-0.22-4.472
				c-1.92-1.1-3.026,0.64-3.996,2.046c-0.459,0.662-0.927,1.325-1.297,2.036c-4.228,8.146-6.902,16.736-7.218,25.964
				C339.266,424.945,339.863,431.195,342.998,436.901z"/>
			<path fill="#7F451D" d="M376.96,545.436c-1.793-7.154-3.083-14.432-4.549-21.666c-0.256-1.252-0.313-2.546-0.463-3.82
				c-0.387,0.042-0.779,0.083-1.165,0.125c-0.227,0.962-0.575,1.915-0.655,2.889c-0.234,2.844-0.498,5.694-0.506,8.545
				c-0.038,11.262,3.249,21.311,10.97,29.743c3.027,3.306,6.909,5.099,11.147,6.978c-0.087-0.624-0.033-0.958-0.176-1.139
				c-2.31-2.918-4.595-5.857-6.989-8.703C381.297,554.492,378.206,550.394,376.96,545.436z"/>
			<path fill="#7F451D" d="M396.998,563.332c1.592,0.301,3.329,0.512,4.878,0.173c1.573-0.339,2.299-1.63,0.925-3.126
				c-1.282-1.388-2.506-2.893-4.004-4.013c-5.318-3.97-9.094-9.042-11.551-15.171c-0.567-1.418-1.209-2.852-2.096-4.078
				c-0.416-0.571-1.582-1.026-2.248-0.867c-0.658,0.159-1.286,1.081-1.61,1.811c-0.272,0.615-0.179,1.444-0.094,2.16
				c1.086,9.109,5.596,16.174,12.566,21.419C395.057,562.344,395.971,563.138,396.998,563.332z"/>
			<path fill="#7F451D" d="M364.875,482.553c2.658,0.886,5.517,1.191,8.305,1.646c0.451,0.073,1.323-0.32,1.413-0.655
				c0.134-0.498-0.069-1.379-0.453-1.676c-2.76-2.145-5.477-4.384-8.437-6.223c-10.546-6.555-19.076-15.017-25.01-25.972
				c-6.883-12.704-7.502-25.62-1.095-38.714c0.806-1.65,0.803-3.191-0.753-4.301c-1.608-1.146-3.224-0.613-4.223,0.871
				c-1.459,2.173-3.193,4.388-3.83,6.84c-1.717,6.595-2.924,13.38-2.042,20.218c2.474,19.196,12.882,33.368,28.251,44.252
				C359.719,480.152,362.194,481.661,364.875,482.553z"/>
			<path fill="#7F451D" d="M363.753,558.063c0.407,0.341,1.273,0.136,1.927,0.19c0.003-0.667,0.24-1.452-0.032-1.974
				c-1.244-2.386-2.653-4.685-3.965-7.036c-6.618-11.858-6.591-24.153-2.324-36.696c0.905-2.659,0.746-4.343-0.737-5.098
				c-1.414-0.721-3.019,0.196-4.754,2.98c-0.103,0.224-0.48,0.864-0.703,1.552c-2.75,8.488-3.573,17.147-2.125,25.973
				C352.432,546.436,357.363,552.734,363.753,558.063z"/>
			<path fill="#7F451D" d="M364.618,379.242c0.961,1.095,2.551,1.639,3.865,2.423c0.454-1.329,1.33-2.676,1.283-3.99
				c-0.123-3.358-0.519-6.723-1.052-10.047c-1.798-11.271-1.458-22.479,0.747-33.65c0.879-4.458,2.795-8.45,5.697-12.577
				c-0.382,1.235-0.646,1.975-0.839,2.733c-1.213,4.743-2.743,9.433-3.553,14.244c-3.256,19.378,13.647,36.904,34.066,33.993
				c0.307-0.044,0.584-0.319,1.321-0.744c-0.918-0.409-1.437-0.817-1.982-0.855c-6.606-0.456-12.2-3.393-17.526-7.024
				c-7.479-5.095-11.396-12.119-10.986-21.212c0.374-8.316,2.602-16.248,6.909-23.364c3.668-6.06,8.144-11.631,11.87-17.659
				c1.717-2.778,4.138-4.23,6.781-5.589c2.669-1.371,5.418-2.588,8.151-3.834c1.794-0.817,4.262-1.084,5.288-2.452
				c1.688-2.251,3.994-2.367,6.156-3.167c2.33-0.857,4.671-1.689,7.006-2.534c-0.028-0.24-0.056-0.483-0.085-0.724
				c-0.566-0.239-1.141-0.7-1.698-0.68c-3.042,0.115-6.17-0.042-9.093,0.643c-3.324,0.781-6.5,2.26-9.673,3.594
				c-6.93,2.909-14.274,5.065-19.808,10.593c-0.274,0.273-0.617,0.48-0.93,0.72c3.884-5.195,8.014-10.136,13.738-13.306
				c9.088-5.037,19.041-7.532,29.168-9.342c3.015-0.538,6.125-0.579,9.195-0.729c1.201-0.061,2.42,0.201,3.94,0.347
				c-0.359-0.619-0.418-0.893-0.573-0.963c-6.329-2.906-12.839-4.96-19.943-4.102c-9.822,1.19-18.956,4.337-27.332,9.633
				c-0.53,0.336-1.079,0.643-1.651,0.983c-1.118-6.863-0.31-13.468,0.595-20.084c0.456-3.325,0.674-6.685,0.877-10.034
				c0.031-0.504-0.613-1.048-0.946-1.572l-1.16,1.868c-1.197,3.896-2.718,7.726-3.515,11.701
				c-1.333,6.649-1.755,13.364,0.576,19.974c0.183,0.523-0.277,1.43-0.68,1.981c-3.146,4.305-6.779,8.319-9.452,12.894
				c-5.261,9.009-8.106,19.23-13.578,28.174c-0.603,0.987-0.948,2.143-1.333,3.248c-5.312,15.265-5.471,30.738-1.711,46.333
				C363.105,376.553,363.656,378.147,364.618,379.242z"/>
			<path fill="#7F451D" d="M580.205,210.617c-0.219,0.706,0.143,1.824,0.647,2.461c0.603,0.765,1.54,1.396,2.459,1.762
				c12.866,5.12,25.1,12.067,39.228,13.562c1.281,0.137,2.519,0.713,3.778,1.086c0.067-0.143,0.134-0.288,0.202-0.429
				c-0.161-0.208-0.277-0.5-0.488-0.615c-2.822-1.523-5.589-3.177-8.506-4.495c-8.462-3.821-16.944-7.6-25.503-11.191
				c-3.079-1.292-6.38-2.08-9.626-2.915C581.734,209.671,580.348,210.153,580.205,210.617z"/>
			<path fill="#7F451D" d="M408.926,248.577c2.259-2.473,4.465-4.999,6.63-7.556c2.814-3.324,5.699-6.572,10.123-7.73
				c8.865-2.321,17.679-3.564,26.333,1.011c1.845,0.974,4.04,1.284,6.287,1.967c-0.822-3.778-7.392-7.225-16.772-9.423
				c3.465,0.073,6.917,0.401,10.375,0.568c3.413,0.162,6.835,0.157,10.58,0.233c-6.073-5.053-12.939-6.342-20.193-6.762
				c5.106-1.065,10.198-1.773,15.295-2.435c4.998-0.646,10.003-1.229,15-1.898c0.41-0.054,1.108-0.59,1.075-0.816
				c-0.067-0.478-0.44-1.158-0.848-1.307c-3.016-1.08-6.068-2.06-9.118-3.046c-0.547-0.175-1.134-0.224-2.24-0.435
				c6.522-1.594,13.026,0.511,18.642-2.83c0.048-0.284,0.099-0.565,0.149-0.849c-3.193-0.972-6.386-1.946-9.577-2.918
				c1.381-0.147,2.754-0.12,4.126-0.065c6.127,0.235,12.148,3.014,18.443,0.544c-0.408-0.492-0.948-0.99-1.302-1.597
				c-1.302-2.24-3.34-3.495-5.722-4.149c-11.966-3.282-23.663-2.313-35.02,2.568c-2.128,0.914-4.052,2.328-6.014,3.598
				c-2.069,1.339-4.023,2.855-6.112,4.158c-2.499,1.556-5.122,2.922-5.789,6.193c-0.07,0.347-0.512,0.733-0.872,0.884
				c-6.043,2.534-9.237,8.411-14.261,12.149c-1.404,1.044-2.88,2.365-2.514,4.561c0.033,0.19-0.293,0.475-0.498,0.669
				c-3.992,3.747-6.788,8.21-8.066,13.559c-0.129,0.538,0.131,1.171,0.21,1.76C407.836,248.991,408.575,248.959,408.926,248.577z"/>
			<path fill="#7F451D" d="M390.255,445.541c-2.148-2.453-4.545-1.787-5.66,1.241c-0.058,0.157-0.256,0.263-0.444,0.448
				c-0.299-0.329-0.54-0.596-0.784-0.862c-7.259-7.866-9.992-17.645-11.33-27.859c-1.253-9.58,1.026-18.177,8.482-24.924
				c0.853-0.773,1.604-1.736,2.152-2.746c0.909-1.674,0.578-3.35-0.824-4.594c-1.377-1.227-2.92-0.774-4.237,0.207
				c-1.346,1.005-2.64,2.101-3.846,3.271c-3.635,3.523-6.407,7.626-7.91,12.492c-2.157,6.983-2.536,14.055-1.262,21.287
				c1.808,10.254,4.76,19.961,11.867,27.948c1.74,1.955,3.374,4.006,5.045,6c-0.56,0.217-1.276,0.397-1.265,0.507
				c0.183,1.977,0.452,3.947,0.79,6.604c-2.445-3.169-4.975-5.694-6.598-8.706c-3.428-6.37-6.354-13.014-9.572-19.501
				c-0.434-0.877-1.373-1.499-2.078-2.237c-0.342,1.03-0.684,2.062-1.021,3.095c-0.021,0.064,0.002,0.146,0.012,0.219
				c1.253,10.084,4.296,19.497,10.975,27.353c3.869,4.551,7.667,9.238,13.021,12.287c1.259,0.717,2.098,2.962,3.505,0.089
				c0.904,0.854,1.599,1.775,2.517,2.304c0.868,0.501,1.975,0.596,3.296,0.956c1.822,5.249,2.47,11.074,1.557,17.074
				c-0.287,1.875-0.294,3.789-0.5,5.679c-0.1,0.91-0.45,1.798-0.529,2.708c-0.068,0.773,0.089,1.566,0.146,2.35
				c0.768-0.232,1.673-0.277,2.273-0.729c1.068-0.808,1.949-1.861,3.039-2.94c1.518,3.173,3.365,1.103,5.469,0.552
				c-1.886,4.767-3.622,9.156-5.356,13.537c1.672-1.453,3.463-3.013,5.256-4.574c0.146,0.132,0.293,0.265,0.439,0.398
				c-1.42,4.426-3.174,8.653-7.642,11.241c0.183,0.172,0.365,0.348,0.548,0.523c0.985-0.201,1.978-0.605,2.955-0.569
				c5.296,0.197,9.518-2.287,12.683-6.019c8.203-9.678,12.588-20.696,11.486-33.756c-1.334-15.789-5.172-30.561-16.027-42.608
				c-4.586-5.09-9.85-9.572-14.887-14.241c-1.259-1.167-2.931-1.647-4.312-0.113c-1.281,1.427-0.644,2.823,0.434,4.132
				c2.039,2.473,4.035,4.981,5.787,7.151c-0.17,1.35-0.295,2.436-0.445,3.517c-0.043,0.315-0.051,0.785-0.246,0.901
				c-1.844,1.112-1.076,2.355-0.36,3.741c2.337,4.514,4.595,9.066,6.884,13.606c-1.309-1.223-2.293-2.651-3.374-4.003
				C397.024,453.805,393.771,449.558,390.255,445.541z"/>
			<path fill="#7F451D" d="M473.56,191.093c8.735,0.32,17.403,1.113,25.549,4.728c3.085,1.369,6.319,1.897,9.644,0.925
				c0.627-0.183,1.386-0.539,1.665-1.048c0.171-0.308-0.337-1.196-0.76-1.587c-1.852-1.701-3.786-3.318-5.907-5.148
				c1.112-0.564,2.218-1.249,3.408-1.705c8.063-3.1,16.074-6.355,24.247-9.129c3.908-1.328,8.134-1.717,12.215-2.535
				c3.785-0.763,7.577-1.483,11.338-2.344c0.525-0.119,0.893-0.934,1.333-1.427c-0.468-0.38-0.882-0.941-1.418-1.106
				c-1.392-0.422-2.824-0.875-4.262-0.958c-5.339-0.306-9.242-3.454-13.086-6.591c-2.762-2.251-2.488-6.248,0.434-8.307
				c1.352-0.953,2.929-1.692,4.511-2.189c5.113-1.607,10.354-1.763,15.665-1.189c8.658,0.937,17.351,1.566,25.979,2.711
				c4.697,0.625,9.284,2.1,14.103,1.391c0.502-0.075,0.975-0.35,1.461-0.534c-0.374-0.375-0.69-0.862-1.138-1.106
				c-2.474-1.34-4.98-2.62-7.569-3.968c1.447-2.13,3.67-2.69,6.036-2.9c6.567-0.582,13.106-1.108,19.709,0.06
				c2.353,0.418,4.901-0.263,7.361-0.44c0.04-0.254,0.08-0.508,0.12-0.758l-3.621-2.251c2.033-0.955,3.705-2.401,5.368-2.391
				c4.818,0.021,9.747,0.097,14.419,1.127c7.845,1.734,15.565,4.095,23.267,6.422c8.395,2.537,16.786,5.015,25.718,5.71
				c-3.123-1.94-6.076-4.258-9.4-5.755c-12.396-5.585-25.524-8.997-38.626-12.437c-1.196-0.313-2.46-0.392-3.7-0.486
				c-5.622-0.425-11.244-0.879-16.873-1.201c-3.576-0.205-7.178-0.434-10.746-0.242c-10.234,0.553-20.461,1.25-30.683,2.011
				c-6.204,0.461-12.496,0.635-18.573,1.831c-11.338,2.24-22.659,4.83-33.422,9.119c-5.402,2.151-10.49,5.175-15.523,8.138
				c-4.785,2.817-9.331,6.037-13.951,9.129c-11.095,7.427-22.197,14.845-33.212,22.391c-0.905,0.621-1.173,2.173-1.738,3.293
				c1.075,0.455,2.145,1.283,3.222,1.291C468.604,191.651,471.094,191.001,473.56,191.093z"/>
			<path fill="#7F451D" d="M766.473,286.247c-1.313-1.666-2.843-3.181-4.017-4.936c-5.213-7.784-11.548-14.613-18.483-20.804
				c-8.352-7.452-17.059-14.512-25.712-21.619c-2.592-2.131-5.472-3.925-8.313-5.731c-1.284-0.816-2.77-0.714-3.73,0.643
				c-0.969,1.366-0.488,2.647,0.682,3.7c0.601,0.539,1.225,1.051,1.85,1.56c6.875,5.596,13.833,11.095,20.609,16.806
				c7.728,6.511,15.317,13.188,22.929,19.836c4.67,4.081,10.113,7.306,13.827,12.46c0.171,0.235,0.612,0.277,0.926,0.408
				c0.172-0.139,0.341-0.278,0.513-0.417C767.198,287.516,766.918,286.816,766.473,286.247z"/>
			<path fill="#7F451D" d="M899.925,442.967c-0.427,0.587-1.069,1.121-1.231,1.776c-0.24,0.977-0.224,2.041-0.177,3.06
				c0.433,9.503-0.718,18.883-2.379,28.197c-0.531,2.984-1.747,5.843-2.608,8.775c-0.453,1.539-0.658,3.168-1.241,4.652
				c-2.412,6.128-4.803,12.271-7.46,18.293c-1.114,2.521-2.88,4.754-4.348,7.116c-0.169-0.067-0.335-0.132-0.502-0.199
				c0.584-3.26,0.562-6.789,1.86-9.735c5.486-12.45,9.082-25.364,10.342-38.883c0.323-3.448-0.245-6.997-0.608-10.478
				c-0.157-1.519-1.264-2.479-2.925-2.408c-1.675,0.069-2.425,1.18-2.747,2.667c-0.093,0.425-0.091,0.873-0.119,1.31
				c-1.259,19.831-6.906,38.406-16.026,55.984c-1.302,2.506-2.696,4.967-4.048,7.447c0.826-3.411,2.01-6.641,2.997-9.929
				c3.432-11.442,5.67-23.056,4.357-35.078c-0.242-2.224-0.968-4.421-1.693-6.555c-0.179-0.526-1.221-1.006-1.876-1.024
				c-0.326-0.005-0.768,1.055-0.992,1.688c-0.162,0.46-0.046,1.015-0.057,1.528c-0.3,12.12-1.441,24.12-4.978,35.786
				c-5.515,18.194-15.174,34.224-26.031,49.604c-1.6,2.267-3.719,4.171-5.598,6.242c5.999-8.526,11.211-17.428,15.457-26.887
				c3.384-7.542,5.489-15.49,5.921-23.743c0.778-14.896,0.737-29.816-3.396-44.294c-1.587-5.554-4.428-10.75-6.653-16.008
				c0.766,0.268,1.959,0.813,3.209,1.071c0.702,0.145,1.68,0.036,2.193-0.381c0.373-0.303,0.494-1.49,0.201-1.943
				c-1.177-1.823-2.316-3.787-3.91-5.203c-4.562-4.041-10.019-6.584-15.771-8.467c-5.719-1.874-11.477-3.663-17.632-2.758
				c-0.842,0.124-2.123,0.313-2.377,0.857c-1.153,2.473-3.403,2.282-5.469,2.709c-0.838,0.175-1.633,0.631-2.404,1.039
				c-1.718,0.909-2.424,2.352-1.838,4.222c0.598,1.906,2.076,2.621,3.965,2.301c4.091-0.688,7.854,0.315,11.46,2.106
				c5.644,2.797,11.226,5.728,16.906,8.456c3.448,1.657,7.026,3.043,10.546,4.551c0.541,0.1,0.768,0.793,0.959,1.496
				c3.763,13.998,4.683,28.3,4.607,42.719c-0.048,8.977-1.68,17.578-5.23,25.867c-3.741,8.729-8.487,16.879-13.543,24.881
				c-3.262,5.167-7.289,9.47-12.768,12.396c-3.543,1.892-6.932,4.097-10.295,6.302c-0.996,0.653-1.673,1.783-2.497,2.697
				c0.161,0.234,0.322,0.469,0.484,0.703c3.278-0.975,6.558-1.949,9.923-2.947c-0.323,1.028-0.592,1.887-1.029,3.271
				c1.687-0.841,2.895-1.442,3.792-1.889c0.382,1.08,0.741,2.108,1.245,3.538c-0.533,0.991-1.291,2.25-1.902,3.575
				c-1.38,2.994,0.576,5.792,3.862,5.472c1.149-0.111,2.299-0.473,3.389-0.878c7.448-2.778,12.902-8.197,18.202-13.82
				c1.597-1.695,3.141-3.482,4.956-4.92c2.636-2.082,5.57-3.789,8.243-5.83c7.902-6.02,15.065-12.76,20.585-21.13
				c5.509-8.36,9.998-17.23,13.849-26.453c7.216-17.275,12.33-35.058,13.398-53.865c0.326-5.75,0.023-11.43-1.356-17.026
				C900.971,443.989,900.336,443.506,899.925,442.967z"/>
			<path fill="#7F451D" d="M630.259,247.613c-3.843-1.569-7.674-3.168-11.555-4.637c-16.773-6.352-33.304-13.377-50.844-17.537
				c-4.708-1.117-7.973,0.167-8.931,4.904c-1.756,8.674-3.099,17.434-4.657,26.15c-0.532,2.978-1.191,5.937-1.793,8.904
				c-0.216,0.005-0.43,0.01-0.646,0.016c-1.357-2.829-2.804-5.621-4.05-8.497c-1.445-3.335-3.186-6.418-5.958-8.855
				c-0.558-0.489-1.131-1.237-1.229-1.932c-0.625-4.401-0.839-8.879-1.714-13.225c-1.964-9.756-5.242-18.913-13.61-25.25
				c-0.941-0.713-2.053-1.203-3.087-1.793c-0.191,0.245-0.383,0.488-0.574,0.735c4.455,5.069,9.272,9.811,10.82,16.803
				c1.254,5.67,0.845,16.163-1.428,19.919c-0.867-3.004-1.686-6.112-2.683-9.163c-0.445-1.36-1.129-3.151-2.955-2.595
				c-1.877,0.572-1.028,2.32-0.657,3.586c1.714,5.835,3.594,11.545,0.505,17.634c-1.839,3.623-2.9,7.634-4.42,11.426
				c-0.676,1.688-1.624,3.27-2.449,4.898c-0.193-2.039,0.321-3.959,0.1-5.788c-0.527-4.326-1.372-8.615-2.19-12.902
				c-0.09-0.472-0.856-0.812-1.309-1.213c-0.394,0.524-1.026,1.006-1.137,1.584c-0.254,1.344-0.093,2.773-0.392,4.099
				c-0.692,3.062-1.576,6.077-2.346,9.123c-0.489,1.927-0.907,3.869-1.433,6.13c-0.922-4.073-1.332-7.86-2.673-11.286
				c-1.449-3.702-3.704-7.101-5.765-10.539c-0.318-0.533-1.47-0.566-2.236-0.831c-0.179,0.729-0.675,1.556-0.484,2.168
				c0.634,2.01,1.591,3.918,2.286,5.914c1.197,3.435,2.562,6.846,3.35,10.381c0.804,3.606-0.826,10.229-2.461,12.69
				c-1.75-5.34-3.549-10.84-5.349-16.336c-0.246,0.055-0.493,0.111-0.739,0.171c-0.078,1.131-0.177,2.26-0.23,3.392
				c-0.169,3.562-0.463,7.128-0.428,10.687c0.021,2.332,0.742,4.655,0.758,6.988c0.017,2.338-0.448,4.681-0.701,7.022
				c-0.212-0.017-0.424-0.037-0.636-0.055c-0.07-0.203-0.18-0.401-0.2-0.61c-0.696-7.51-3.348-14.371-6.914-20.933
				c-0.776-1.423-1.811-2.426-3.519-1.795c-1.817,0.673-2.067,2.173-1.445,3.805c0.572,1.503,1.232,2.983,1.988,4.4
				c3.73,7.008,4.786,14.246,1.908,21.814c-1.49,3.915-2.971,7.926-7.262,9.691c-1.667,0.683-3.489,1.127-5.281,1.343
				c-7.179,0.859-14.378,2.235-21.562,2.188c-7.646-0.048-15.266-1.677-22.924-2.275c-8.875-0.694-17.452,0.787-25.228,5.298
				c-5.534,3.209-10.65,10.673-6.545,19.273c4.903,10.275,13.114,16.468,24.173,18.871c3.766,0.819,7.599,1.329,11.684,2.028
				c-0.576,0.741-0.972,1.248-1.364,1.757c-4.416,5.759-10.111,9.779-16.567,13.05c-7.588,3.845-14.861,8.313-23.642,8.97
				c-1.226,0.091-2.448,0.483-3.629,0.868c-0.482,0.161-0.849,0.675-1.269,1.03c0.352,0.414,0.63,1.062,1.068,1.203
				c1.03,0.325,2.133,0.527,3.214,0.563c1.568,0.051,3.143-0.088,5.268-0.167c-1.089,0.751-1.914,1.062-2.322,1.658
				c-0.647,0.944-1.62,2.288-1.348,3.083c0.329,0.959,1.725,1.903,2.821,2.156c1.28,0.295,2.733-0.211,4.115-0.264
				c0.548-0.022,1.387,0.053,1.614,0.397c0.895,1.369,1.929,1.107,3.038,0.478c1.311-0.741,2.592-1.546,4.016-2.398
				c0.281,0.941,0.659,1.693,0.701,2.464c0.097,1.771,0.961,2.304,2.672,2.438c1.224,0.095,2.394,0.894,3.695,1.422
				c-2.793,3.816-2.679,4.591,0.047,8.048c2.169,2.749,4.138,5.656,6.196,8.493c-0.632-0.026-1.016-0.253-1.304-0.567
				c-4.824-5.301-9.648-10.605-14.442-15.933c-1.039-1.153-2.189-1.831-3.661-1.028c-1.568,0.852-1.819,2.289-1.06,3.774
				c0.622,1.226,1.373,2.442,2.299,3.447c5.411,5.859,10.977,11.577,16.324,17.491c8.531,9.432,14.451,20.638,20.25,31.765
				c8.025,15.403,12.504,32.155,16.424,49.008c0.978,4.193,1.4,8.517,2.165,12.765c0.101,0.566,0.721,1.037,1.101,1.552
				c0.294-0.515,0.839-1.028,0.841-1.544c0.058-6.366,0.254-12.741-0.022-19.098c-0.304-7.019-1.214-14.019-1.559-21.039
				c-0.238-4.882,0.125-9.786,0.053-14.678c-0.089-6.15-0.895-12.337-0.434-18.436c1.395-18.406,2.82-36.829,5.063-55.145
				c1.811-14.802,2.943-29.768,7.227-44.182c1.306-4.395,2.733-8.751,3.813-12.195c2.553-1.108,4.551-1.977,6.539-2.84
				c0.258-0.253,0.508-0.514,0.798-0.739c6.886-5.345,16.512-4.92,25.807-2.89c3.134-0.168,6.203-0.693,9.049-2.029
				c6.481-3.044,12.807-6.434,19.11-9.839c4.281-2.315,8.303-5.016,10.402-9.735c0.188-0.423,0.695-0.727,1.1-1.025
				c5.934-4.333,10.578-9.265,11.886-17.113c1.906-11.46,5.71-22.565,6.687-34.236c0.279-3.325,1.036-6.611,1.653-10.405
				c5.285,1.644,10.589,3.026,15.695,4.941c10.028,3.76,20.089,7.353,30.779,8.66c5.35,0.655,10.747,0.93,16.124,1.35
				c0.22,0.016,0.461-0.243,0.85-0.463C630.732,248.077,630.544,247.729,630.259,247.613z M437.047,430.951
				c-0.972-1.684-1.945-3.366-2.919-5.049c0.238-0.136,0.475-0.271,0.712-0.407c0.94,1.702,1.877,3.401,2.817,5.103
				C437.455,430.714,437.252,430.833,437.047,430.951z"/>
			<path fill="#7F451D" d="M812.592,560.472c2.038-1.77,4.027-3.614,5.851-5.598c6.277-6.822,9.814-14.974,11.584-24.008
				c1.687-8.618,0.711-17.202,0.145-25.831c-1.094-16.599-6.577-31.448-17.16-44.306c-1.33-1.616-3.365-2.718-5.216-3.818
				c-1.19-0.704-2.861-0.747-3.382,0.768c-0.315,0.911,0.205,2.365,0.804,3.277c1.03,1.568,2.573,2.796,3.62,4.356
				c1.957,2.914,3.674,5.988,5.554,8.955c5.226,8.247,7.565,17.375,8.426,27.088c-0.937-0.013-1.777-0.026-2.646-0.037
				c-0.366-0.845-0.693-1.657-1.06-2.449c-0.812-1.742-2.139-2.655-4.067-2.102c-1.818,0.521-2.43,1.953-2.362,3.747
				c0.062,1.684,0.257,3.377,0.133,5.046c-0.511,6.786-1.275,13.557-1.656,20.351c-0.449,8.016-2.474,15.868-1.927,24.027
				c0.188,2.812-0.842,5.484,2.506,7.078c-0.478,0.594-1.005,0.987-1.147,1.491c-0.196,0.687-0.099,1.458-0.129,2.194
				C811.187,560.642,812.151,560.857,812.592,560.472z"/>
			<path fill="#7F451D" d="M781.684,339.86c0.113,1.705,0.196,3.417,0.242,5.136c1.086-0.732,0.804-1.902,0.442-3.029
				C782.139,341.262,781.912,340.563,781.684,339.86z"/>
			<path fill="#7F451D" d="M904.141,431.986c-0.963-5.55-1.866-11.126-3.194-16.595c-2.483-10.217-5.477-20.264-12.163-28.727
				c-0.356-0.449-0.606-1.011-0.8-1.556c-1.647-4.625-3.272-9.26-4.902-13.891c0.211-0.005,0.424-0.009,0.633-0.013
				c0.093-0.71,0.369-1.457,0.237-2.12c-0.242-1.208-0.695-2.378-1.121-3.541c-3.643-9.97-7.292-19.733-18.206-24.545
				c-6.915-3.05-13.868-4.5-21.325-3.907c-2.682,0.212-5.365,0.433-8.199,0.664c-0.109-8.085-1.897-15.52-4.384-22.84
				c-1.599-4.708-2.308-9.81-4.473-14.218c-5.384-10.969-11.201-21.739-17.195-32.395c-3.108-5.53-6.585-10.941-10.55-15.881
				c-7.66-9.545-17.123-17.196-27.126-24.197c-1.205-0.841-2.503-2.343-2.695-3.689c-0.677-4.742-2.434-9.006-4.572-13.223
				c-3.324-6.552-8.926-11.532-12.115-18.222c-2.557-5.369-7.618-8.568-12.268-12.03c-2.917-2.171-5.695-4.521-8.536-6.793
				l-4.112-2.554c-0.796-0.33-1.645-0.57-2.38-1.004c-2.459-1.456-4.809-3.121-7.331-4.453c-3.418-1.806-6.898-3.537-10.487-4.953
				c-1.032-0.407-2.697,0.091-3.78,0.696c-1.33,0.74-1.255,2.261-0.61,3.538c1.245,2.462,2.586,4.879,3.905,7.303
				c0.439,0.809,0.937,1.586,1.409,2.376c-1.408-0.7-2.346-1.732-3.459-2.524c-0.573-0.409-1.451-0.389-2.192-0.566
				c0.019,0.746-0.024,1.499,0.078,2.233c0.057,0.415,0.345,0.8,0.546,1.191c2.571,5.02,5.153,10.033,7.717,15.056
				c0.654,1.28,1.372,2.426,0.429,4.068c-0.467,0.814,0.035,2.239,0.241,3.361c0.126,0.691,0.518,1.338,0.79,2.006l-0.79,0.55
				c-2.838-2.867-5.815-5.614-8.479-8.633c-3.34-3.786-6.234-7.984-10.763-10.549c-1.626-0.923-3.199-2.475-5.111-0.674
				c-1.212,1.144-0.606,2.874,1.389,5.157c3.471,3.964,6.864,7.996,10.269,12.02c0.488,0.579,0.855,1.26,1.276,1.894
				c-1.739-0.884-3.124-2.075-4.604-3.13c-8.106-5.789-16.036-11.902-25.969-14.414c-1.172-0.295-2.388-0.825-3.099,0.546
				c-0.765,1.482,0.397,2.381,1.441,3.028c2.427,1.508,5.033,2.74,7.388,4.349c1.693,1.156,3.094,2.741,4.625,4.133
				c-3.682-1.368-6.993-3.208-10.413-4.816c-0.765-0.358-1.917,0.103-2.89,0.186c0.477,0.766,0.842,1.64,1.458,2.269
				c0.804,0.826,2.397,1.318,2.613,2.205c0.66,2.712,2.79,4.017,4.551,5.714c0.689,0.664,1.338,1.368,2.007,2.053
				c-0.132,0.155-0.263,0.308-0.393,0.462c-5.096-3.167-10.142-6.425-15.308-9.472c-3.397-2.003-6.951-3.751-10.486-5.506
				c-0.615-0.303-1.683-0.34-2.188,0.012c-0.365,0.255-0.43,1.524-0.123,2.04c0.872,1.463,1.816,2.978,3.068,4.096
				c2.769,2.466,5.744,4.704,8.636,7.032c-4.679-2.212-9.216-4.6-13.705-7.069c-4.806-2.646-9.915-4.351-15.334-5.12
				c-0.564-0.079-1.166,0.105-1.75,0.17c-0.085,0.283-0.169,0.569-0.253,0.851c8.894,4.609,17.788,9.219,26.684,13.827
				c-5.168-1.404-10.088-3.296-15.117-4.832c-3.007-0.919-6.134-2.275-9.355-0.457c-0.253,0.143-0.718-0.025-1.066-0.117
				c-6.928-1.848-13.857-3.698-20.782-5.564c-7.143-1.925-14.365-2.834-21.745-1.717c-0.669,0.1-1.316,0.335-1.973,0.507
				c-0.012,0.279-0.021,0.557-0.034,0.834c7.985,1.604,16.083,2.793,23.923,4.923c7.88,2.14,15.504,5.22,23.238,7.889
				c-1.012,0.257-1.912,0.114-2.806-0.068c-6.672-1.356-13.317-2.881-20.025-4.024c-4.17-0.712-8.433-0.955-12.665-1.202
				c-1.563-0.093-3.167,0.361-4.736,0.654c-0.873,0.161-1.714,0.501-2.569,0.761c0.74,0.439,1.477,0.879,2.219,1.313
				c0.123,0.071,0.267,0.104,0.402,0.154c-0.11,0.161-0.221,0.322-0.332,0.482c0.556,0.549,1.024,1.282,1.69,1.61
				c1.039,0.507,2.236,0.68,3.326,1.097c12.518,4.797,25.069,9.496,38.073,12.846c3.398,0.877,6.796,1.817,10.251,2.387
				c2.891,0.476,4.402-1.541,3.605-4.345c-0.085-0.297-0.158-0.6-0.297-1.13c1.854,0.381,3.421,0.706,4.989,1.026
				c3.967,0.802,5.135-0.079,5.293-4.091c0.282,0.069,0.551,0.112,0.804,0.202c3.247,1.129,6.489,2.272,9.74,3.394
				c1.602,0.554,3.161,0.456,4.082-1.105c0.877-1.488,0.513-2.956-0.807-4.138c-0.41-0.369-0.778-0.784-1.167-1.176
				c4.31,2.55,8.228,5.516,12.345,8.174c1.377,0.889,3.327,1.484,4.895,1.284c1.091-0.141,1.977-1.871,2.75-2.676
				c1.68,0.87,3.429,2.259,5.385,2.672c2.696,0.571,3.511-1.884,4.444-4.547c1.367,2.314,2.441,4.115,3.498,5.926
				c2.203,3.778,4.048,4.057,6.837,1.181c3.098,1.527,6.073,0.089,9.094-0.117c1.506,3.324,2.089,6.783,1.826,10.46
				c-0.252,3.558,2.409,5.888,5.873,5.19c3.087-0.623,6.152-1.398,9.175-2.28c7.282-2.121,14.64-3.62,22.234-3.09
				c2.918,6.074,9.016,9.179,13.594,13.701c4.559,4.504,10.055,8.061,15.359,12.201c-1.044-0.05-1.89-0.117-2.737-0.132
				c-2.703-0.04-5.424-0.274-8.104-0.026c-2.571,0.237-3.547,1.669-3.322,4.253c0.127,1.437,0.498,2.851,0.791,4.445
				c-1.015,0.016-1.898,0.137-2.746,0.019c-3.732-0.521-7.445-1.161-11.185-1.634c-0.751-0.098-1.738,0.145-2.297,0.615
				c-0.34,0.285-0.362,1.589-0.018,1.943c2.922,3.024,5.856,6.054,9.001,8.84c2.561,2.272,5.444,4.18,8.131,6.315
				c1.661,1.321,3.176,2.824,4.845,4.136c1.787,1.407,4.355,1.124,5.695-0.644c0.538-0.708,0.737-1.674,1.228-2.854
				c6.052,10.219,11.98,20.234,18.066,30.512c-2.466,1.663-2.931,4.807-3.429,8.323c-3.301-3.401-6.576-6.178-9.119-9.516
				c-6.026-7.902-13.605-13.786-22.304-18.359c-0.575-0.303-1.397-0.135-2.102-0.186c0.351,0.548,0.577,1.295,1.076,1.61
				c2.439,1.537,4.134,3.58,5.31,6.24c0.974,2.194,2.312,4.248,3.664,6.245c1.752,2.594,3.675,5.069,5.544,7.618
				c-3.071,1.009-3.652,2.057-2.843,5.108c0.333,1.257,0.743,2.492,1.19,3.969c-2.508-2.695-4.625-5.321-7.112-7.53
				c-0.348-0.31-0.727-0.59-1.106-0.866c2.617,5.374,4.831,10.857,5.712,17.008c0.078,0.533,0.124,1.074,0.19,1.609
				c1.98,0.333,2.407,2.159,2.777,4.055c0.099,0.501,0.31,0.979,0.449,1.471c2.397,8.452,4.79,16.903,7.253,25.602
				c-2.582-0.856-3.674-0.314-3.654,2.009c0.026,2.976,0.018,6.121,0.94,8.889c2.564,7.71,5.459,15.323,8.536,22.847
				c1.01,2.471,0.806,4.682,0.603,6.675c-2.292-2.084-4.541-4.302-7.001-6.26c-0.753-0.6-2.079-0.481-3.144-0.694
				c0.037,0.921-0.063,1.876,0.15,2.752c0.276,1.129,0.894,2.169,1.208,3.294c1.97,7.06,3.869,14.14,5.852,21.198
				c0.592,2.111,1.277,4.213,2.134,6.229c0.276,0.648,1.242,1.006,1.892,1.497c0.518-0.711,1.182-1.363,1.501-2.154
				c0.253-0.625,0.083-1.422,0.102-2.172c3.59,1.2,4.651,0.901,6.628-2.264c1.83-2.926,4.044-5.434,6.484-7.899
				c5.776-5.832,9.46-13.014,12.992-20.444c6.272-13.195,6.788-27.321,8.033-41.342c0.482-5.458-0.108-5.517,5.366-6.621
				c0.716-0.145,1.458-0.309,2.177-0.273c4.079,0.217,8.154,0.577,12.236,0.69c0.922,0.027,2.214-0.49,2.691-1.195
				c0.367-0.543,0.029-2.249-0.53-2.611c-2.8-1.818-5.497-3.826-9.013-4.334c-4.361-0.632-8.588-0.34-12.906,1.115
				c-0.013-1.422-0.023-2.574-0.032-3.691c3.95-0.247,7.733-0.517,11.521-0.716c14.3-0.753,23.128,7.33,28.577,19.194
				c0.089,0.196,0.201,0.422,0.181,0.623c-0.23,2.556-0.479,5.111-0.732,7.766c-3.807,0.924-4.776,2.173-4.421,6.446
				c0.182,2.208,0.647,4.39,0.983,6.588c-0.16-0.419-0.323-0.837-0.484-1.258c-1.5,0.47-3.001,0.939-4.501,1.405
				c-0.475,0.143-1.088-0.574-1.725-1.269c-2.019-2.21-4.049-2.687-5.981-1.416c-1.824,1.197-2.372,3.633-1.329,6.114
				c0.47,1.116,1.032,2.194,1.677,3.549c-1.652-0.481-2.886-0.919-4.157-1.191c-1.501-0.32-2.97,0.306-3.004,1.781
				c-0.059,2.564,0.102,5.239,0.794,7.692c0.839,2.972,2.329,5.759,3.602,8.786c-2.945-1.152-3.626-0.894-5.301,1.831
				c-2.774-1.311-4.22-1.299-5.638,0.129c-1.755,1.765-1.299,3.713-0.426,5.697c0.547,1.244,1.028,2.514,1.542,3.778
				c-3.113,0.963-4.02,1.979-3.511,4.311c0.858,3.933,1.737,7.875,2.921,11.715c1.466,4.761,3.404,9.377,4.856,14.141
				c1.404,4.6,3.364,8.872,6.201,12.734c0.35,0.473,1.452,0.979,1.736,0.787c0.521-0.355,1.057-1.297,0.945-1.867
				c-0.773-3.94-1.695-7.852-2.617-11.761c-0.163-0.696-0.555-1.341-0.837-1.994c4.887-1.996,1.418-5.933,2.733-9.046
				c1.735,2.582,3.718,4.565,6.664,3.183c3.294-1.546,1.661-4.509,1.373-6.988c3.213-0.432,3.458-0.757,3.971-5.207
				c3.026,0.019,4.615-1.738,5.161-4.48c3.911-0.327,5.897-1.738,5.782-4.574c-0.11-2.721,1.869-4.246,2.834-6.339
				c0.522-1.137,1.246-2.388,1.178-3.548c-0.144-2.6-0.724-5.179-1.104-7.609c1.508-0.147,2.968-0.29,4.698-0.461
				c1.522,4.785,2.932,9.719,4.667,14.536c2.306,6.395,4.827,12.713,7.374,19.017c0.231,0.569,1.331,0.784,2.025,1.165
				C903.494,433.4,904.25,432.621,904.141,431.986z"/>
			<path fill="#7F451D" d="M490.33,630.819c-1.258-1.688-3.127-2.974-4.182-4.759c-2.94-4.981-6.085-9.926-8.266-15.249
				c-4.582-11.184-8.677-22.569-12.81-33.927c-1.577-4.336-2.454-5.179-7.129-4.957c-0.801,0.036-1.614,0.394-2.388,0.303
				c-1.694-0.199-3.423-0.416-5.033-0.944c-1.863-0.611-3.58-2.121-5.426-2.245c-3.024-0.203-4.765-1.887-6.494-3.912
				c-1.136-1.332-2.186-2.769-3.484-3.924c-1.98-1.762-3.679-1.364-5.072,0.846c-1.319,2.091-1.101,4.3-0.25,6.344
				c1.234,2.964,2.634,5.889,4.291,8.634c1.449,2.4,2.853,4.484,2.972,7.616c0.195,5.08,3.468,8.953,7.172,12.173
				c1.523,1.323,2.186,2.749,2.65,4.573c0.822,3.251,1.873,6.442,2.823,9.658c0.253,0.862,0.487,1.727,0.896,3.185
				c-4.47-2.461-8.653-4.16-10.551-8.676c-2.008-4.775-3.986-9.563-6.029-14.324c-0.231-0.544-0.792-1.325-1.186-1.316
				c-0.582,0.009-1.498,0.518-1.657,1.013c-0.32,1-0.531,2.22-0.247,3.189c0.952,3.22,2.176,6.36,3.236,9.548
				c0.932,2.8,1.769,5.626-1.103,8.108c-3.036-3.375-5.871-6.851-7.296-11.293c-0.225-0.701-1.014-1.223-1.542-1.825
				c-0.461,0.694-1.36,1.42-1.311,2.075c0.168,2.298,0.257,4.737,1.119,6.816c1.757,4.237,4.674,7.741,8.137,10.782
				c0.616,0.54,1.196,1.303,1.429,2.074c2.329,7.71,5.934,14.8,10.327,21.514c0.387,0.595,0.77,1.186,1.264,1.951
				c-1.917,1.205-3.527,2.906-5.388,3.253c-5.359,0.993-10.828,2.147-16.189-0.274c-1.171-0.529-2.319-0.051-2.061,1.27
				c0.491,2.53,0.804,5.146,2.992,7.095c3.198,2.851,6.511,5.434,10.945,6.732c-1.327,0.36-2.485,0.433-3.348,0.971
				c-0.91,0.566-2.112,1.57-2.133,2.406c-0.024,0.986,0.861,2.424,1.758,2.9c1.349,0.721,3.042,0.854,4.611,1.101
				c3.062,0.478,6.142,0.86,9.216,1.289c0.13,0.02,0.262,0.122,0.366,0.217c2.258,2.01,4.512,4.023,6.958,6.212
				c-1.322,0.223-2.68,0.345-3.967,0.719c-0.658,0.186-1.188,0.82-1.777,1.25c0.45,0.613,0.796,1.594,1.372,1.758
				c1.385,0.385,2.979,0.803,4.307,0.476c5.482-1.354,11.066-1.849,16.643-2.47c0.29-0.029,0.572-0.184,0.857-0.183
				c0.436,0,0.873,0.086,1.944,0.21c-1.341,0.933-2.129,1.542-2.978,2.055c-1.942,1.177-3.975,2.218-5.832,3.512
				c-0.648,0.451-1.39,1.668-1.194,2.216c0.272,0.757,1.357,1.645,2.15,1.701c1.247,0.086,2.645-0.256,3.792-0.807
				c2.303-1.104,4.882-2.075,6.619-3.822c3.341-3.364,7.954-2.563,11.799-4.317c-3.514,3.056-7.264,5.699-10.976,8.393
				c-0.482,0.349-0.771,0.96-1.15,1.451c0.591,0.341,1.244,1.039,1.764,0.951c1.633-0.274,3.359-0.579,4.793-1.351
				c4.321-2.322,7.86-5.586,10.588-9.695c0.414-0.624,0.887-1.21,1.333-1.813c-1.67,19.259-10.505,35.253-21.848,50.119
				c0.085,0.19,0.169,0.376,0.255,0.566c1.531-0.989,3.343-1.73,4.541-3.028c2.67-2.897,5.283-5.907,7.469-9.171
				c3.827-5.723,7.791-11.43,10.826-17.574c3.883-7.864,5.621-16.476,6.127-25.256c0.665-11.54,2.456-23.255-4.371-33.828
				C494.184,636.3,492.33,633.502,490.33,630.819z"/>
			<path fill="#7F451D" d="M440.417,544.027c0.173-0.44,0.721-0.957,1.16-1.03c6.562-1.097,9.626-4.644,10.333-11.269
				c0.639-5.971-2.186-10.473-5.654-14.708c-0.661-0.807-2.783-1.316-3.6-0.853c-0.853,0.485-1.443,2.385-1.274,3.537
				c0.569,3.865,0.102,7.644-1.911,10.775c-1.23,1.916-3.752,3.683-5.959,4.095c-2.046,0.382-4.373-3.659-4.415-6.583
				c-0.016-1.067,0.072-2.258,0.528-3.191c0.866-1.762,2.048-3.371,3.066-5.063c0.367-0.614,0.637-1.281,1.091-2.207
				c-0.756,0.076-1.147-0.004-1.294,0.149c-1.438,1.516-3.08,2.91-4.198,4.643c-4.22,6.551-0.41,15.516,7.211,17.052
				c1.941,0.393,2.208,1.427,1.324,2.763c-3.031,4.573-5.913,9.291-9.372,13.529c-7.854,9.612-18.797,14.968-29.529,20.537
				c-0.542,0.281-1.266,0.4-1.875,0.33c-4.58-0.52-9.148-1.144-13.729-1.668c-8.004-0.92-14.584-4.63-20.102-10.32
				c-2.162-2.23-4.177-4.639-4.854-8.58l4.536,2.82c0.204-0.282,0.409-0.559,0.614-0.841c-1.449-1.205-2.808-2.557-4.387-3.557
				c-0.862-0.548-2.667-1.027-3.05-0.613c-0.757,0.817-1.219,2.32-1.094,3.459c0.426,3.883,2.2,7.247,4.676,10.253
				c10.198,12.368,23.832,14.182,38.369,11.722c8.963-1.515,16.869-6.077,24.287-11.381
				C429.934,561.665,436.51,553.943,440.417,544.027z"/>
			<path fill="#7F451D" d="M402.701,589.387c2.394-1.002,4.5-2.691,6.735-4.069c-0.057-0.157-0.114-0.316-0.172-0.476
				c-2.192,0.02-4.417-0.186-6.573,0.104c-4.422,0.597-8.789,1.57-13.207,2.179c-4.239,0.582-8.131-0.141-11.175-3.594
				c-1.254-1.422-3.492-0.743-3.592,1.134c-0.064,1.154,0.456,2.652,1.251,3.479c2.687,2.798,6.106,4.231,10.01,4.346
				C391.773,592.656,397.387,591.617,402.701,589.387z"/>
			<path fill="#7F451D" d="M410.413,611.05c-3.136-1.123-6.413-1.889-9.47-3.185c-5.451-2.305-10.773-4.917-16.169-7.36
				c-1.768-0.801-3.532-1.157-4.957,1.716c-2.103-2.992-4.152-5.452-5.657-8.209c-0.937-1.721-1.75-3.043-3.846-2.84
				c-1.846,0.177-2.987,1.688-3.051,3.939c-0.086,2.953,1.168,5.492,3.027,7.581c2.859,3.213,5.876,6.318,9.07,9.196
				c6.015,5.421,12.957,8.636,21.293,8.388c4.456-0.133,7.958-2.245,11.209-4.907c0.636-0.518,1.082-1.935,0.836-2.68
				C412.46,611.961,411.292,611.364,410.413,611.05z"/>
			<path fill="#7F451D" d="M598.766,343.982c-22.072-10.786-46.058-12.718-69.243-4.155c-11.22,4.145-20.051,11.323-28.911,19.175
				c-5.211,4.619-15.951,21.333-15.14,28.028c7.35-4.521,8.189-17.373,15.165-23.428c8.842-7.676,18.866-8.629,30.028-8.691
				c13.853-0.079,27.143-1.314,40.353-5.685C573.853,348.287,598.981,342.735,598.766,343.982
				C598.234,343.722,598.716,344.276,598.766,343.982z"/>
			<path fill="#FFFFFF" d="M508.907,420.899c0,0,16.624-10.981,38.166-9.835c21.542,1.148,26.456,4.548,34.827,22.884
				c-5.833-0.686-22.202,18.72-41.426,12.805C521.25,440.838,510.891,431.076,508.907,420.899z"/>
			<path fill="#FFFFFF" d="M749.578,425.419c0,0-16.623-10.981-38.166-9.835c-21.542,1.148-30.541,4.549-38.912,22.884
				c5.834-0.687,26.287,18.72,45.51,12.804C737.236,445.358,747.594,435.596,749.578,425.419z"/>
			<path fill-rule="evenodd" clip-rule="evenodd" fill="#59A3DA" d="M536.778,405.745c-1.15-0.02-1.891-0.659-2.244-1.474
				c-5.9,3.127-9.924,9.326-9.924,16.469c0,10.291,8.343,18.634,18.635,18.634c10.292,0,18.635-8.343,18.635-18.634
				c0-4.631-1.699-8.858-4.495-12.118C550.55,407.372,543.76,405.877,536.778,405.745z"/>
			<circle fill-rule="evenodd" clip-rule="evenodd" fill="#59A3DA" cx="708.121" cy="429.495" r="18.634"/>
			<path fill="#281F18" d="M563.508,414.128c4.18,1.339,8.115,2.598,12.05,3.857c0.138-0.453,0.277-0.907,0.415-1.358
				c-1.176-0.885-2.289-2-3.546-2.605c-4.463-2.147-8.952-4.229-13.479-6.136c-7.872-3.313-15.799-5.819-24.061-4.33
				c-4.926,0.889-9.928,1.348-15.042,2.019c6.771-6.111,14.341-9.976,22.955-10.112c5.534-0.086,11.156,1.28,16.739,1.925
				c1.323,0.152,2.656,0.022,3.984,0.019c0.063-0.415,0.126-0.831,0.187-1.247c-1.303-0.695-2.569-1.626-3.918-2.046
				c-15.385-4.797-29.459-1.804-42.171,7.962c-3.012,2.315-5.598,5.639-7.831,9.04c-2.462,3.748-7.881,4.962-11.183,1.85
				c-0.498-0.471-1.274-0.496-1.921-0.725c0.068,0.829-0.072,1.79,0.242,2.471c1.88,4.05,4.306,7.502,7.894,9.5
				c2.93,1.631,5.143,4.09,7.154,7.254c1.845,2.91,4.321,5.442,6.855,7.507c6.087,4.965,12.732,8.252,19.852,10.007
				c5.513,1.359,10.855,1.348,16.064-0.631c0.398-0.149,1.154-1.234,0.901-1.154c-21.055,6.591-42.418-13.934-41.938-22.51
				c3.269-2.08,6.533-4.146,10.317-6.551c-0.206,6.048,2.318,12.511,5.529,15.716c3.444,3.436,8.441,7.002,10.406,5.206
				c-1.322-1.025-2.394-1.951-3.828-2.753c-3.089-1.728-4.406-3.466-6.475-5.729c-0.539-0.591-1.241-5.779-1.227-6.841
				c0.005-0.32,2.889-1.197,3.01-1.055c0.577,0.695,0.597,1.63,0.829,2.532c0.812,3.136,2.999,5.32,4.834,6.408
				c1.228,0.728,2.241,0.939,3.633,1.15c4.483,0.675,11.331-2.203,12.351-7.636c0.352-1.881,0.13-3.984,0.049-5.987
				c-0.078-1.912,0.222-3.593,2.038-3.484c4.422,0.265,7.225,3.823,5.82,9.12c-1.214,4.57-2.539,6.313-5.416,9.807
				c-0.148,0.177-0.145,0.541-0.329,1.294C564.08,430.741,565.656,424.969,563.508,414.128z M541.92,419.504
				c-0.374,1.586-3.197,3.919-4.49,3.71c-1.636-0.265-2.336-2.781-1.462-5.244c1.151-3.233,2.104-3.745,4.407-2.405
				C541.833,416.412,542.341,417.714,541.92,419.504z"/>
			<path fill="#281F18" d="M757.026,432.267c-1.987-0.815-4.051-1.347-6.045-2.145c-1.782-0.714-3.507-1.639-5.255-2.472
				c0.075-0.261,0.153-0.522,0.232-0.785c1.709,0.352,3.412,0.801,5.132,1.003c0.535,0.065,1.314-0.366,1.622-0.886
				c0.227-0.381-0.026-1.344-0.257-1.934c-0.428-1.096-1.266-2.044-1.456-3.174c-0.502-2.994-1.965-4.864-4.04-6.311
				c-1.055-0.739-2.374-1.494-2.9-2.684c-1.333-3.016-3.466-4.707-5.689-6.492c-4.588-3.684-9.63-5.999-14.839-7.906
				c-6.045-2.214-12.236-3.008-18.448-1.874c-3.208,0.582-6.302,2.202-9.396,3.538c-0.699,0.303-1.176,1.379-1.755,2.095
				c0.098,0.402,0.195,0.804,0.293,1.209c12.814-3.781,24.982-2.33,36.609,6.129c-3.109-0.664-5.978-0.952-8.685-1.917
				c-5.09-1.82-9.982-0.683-14.947,0.627c-9.841,2.596-18.591,8.032-26.767,15.021c-1.135,0.972-2.721,1.844-1.845,3.816
				c0.214,0.482,2.421,0.122,3.443-0.507c2.528-1.554,4.898-3.488,7.535-5.419c-0.156,1.249-0.251,2.111-0.338,2.902
				c-0.671,6.248,0.274,13.346,4.478,17.206c1.736,1.595,2.57,3.148,4.673,4.077c0.402,0.179-5.896-10.705-1.777-11.434
				c2.38-0.75,5.995,3.011,6.695,3.462c3.819,2.46,7.709,2.782,11.593,0.423c4.411-2.682,5.341-8.557,2.352-13.307
				c-1.653-2.627-4.011-2.101-6.035-1.973c-1.892,0.12-0.945,2.555-1.063,4.005c-0.183,2.318-1.592,2.627-2.999,2.702
				c-1.545,0.08-1.79-1.08-1.768-2.832c0.02-1.798,0.378-2.844,1.838-3.35c2.041-0.706,4.014-1.729,6.074-2.309
				c4.325-1.214,5.549-1.167,7.963,3.367c2.424,4.553,1.407,9.313-1.024,13.864c-1.22,2.285-2.976,4.143-4.434,6.25
				c-0.323,0.472-0.418,1.185-0.615,1.784c0.526,0.184,1.089,0.621,1.562,0.507c1.127-0.276,2.326-0.58,3.298-1.283
				c5.977-4.342,9.256-13.897,6.026-21.607c-0.321-0.771-0.671-1.522-1.107-2.509c3.612,0.336,5.52,1.686,8.322,3.89
				c4.005,3.143,7.892,6.519,11.942,9.57c3.789,2.855,7.813,3.406,11.877,0.722c0.456-0.302,1.103-1.032,1.046-1.433
				C758.057,433.274,757.518,432.467,757.026,432.267z M743.898,439.537c-1.011-0.2-2.378-0.69-3.054-0.007
				c-14.089,14.257-29.534,16.078-30.024,16.571c0.659,0.414,14.78-0.597,33.504-14.07c0.291-0.209,0.516-0.554,1.03-1.119
				C744.808,440.374,744.379,439.634,743.898,439.537z"/>
			<g opacity="0.3">
				<path fill="#BC8475" d="M791.44,471.487c0.013,0.019,0.031,0.037,0.044,0.057C791.471,471.524,791.454,471.506,791.44,471.487z"
					/>
				<path fill="#BC8475" d="M723.375,671.398c51.212-49.657,63.487-148.041,66.29-201.251c-0.018-0.015-0.039-0.029-0.06-0.044
					c-0.538,0.672-1.314,1.271-1.559,2.036c-0.349,1.094-0.38,2.31-0.422,3.477c-0.172,4.974-0.065,9.971-0.487,14.926
					c-1.864,21.901-6.425,43.354-12.452,64.402c-4.059,14.178-9.919,27.842-14.87,41.775c-4.386,12.349-10.393,23.934-16.873,35.238
					c-8.086,14.112-18.338,26.623-29.63,38.314c-8.549,8.853-18.133,16.116-29.69,20.619c-4.359,1.698-8.581,3.769-12.979,5.35
					c-2.5,0.894-5.419,0.69-7.094,3.368c-0.257,0.411-1.018,0.539-1.567,0.732c-6.923,2.42-13.976,4.191-21.281,5.164
					c-13.092,1.747-26.104,1.995-39.094-0.697c-1.716-0.354-3.539-0.36-5.169-0.94c-6.889-2.453-13.748-4.998-20.566-7.641
					c-2.023-0.785-3.708-0.655-5.276,0.781c-1.651,1.51-1.791,3.417-0.812,5.228c1.629,3.01,3.184,6.148,5.322,8.789
					c5.392,6.652,11.142,13.011,16.65,19.575c4.45,5.305,9.256,10.123,15.261,13.741c4.14,2.493,8.577,3.654,13.21,3.163
					c7.422-0.783,14.893-1.665,22.152-3.333c7.854-1.805,14.761,0.911,21.762,3.297c2.923,0.999,5.499,3.05,8.169,4.724
					c2.983,1.867,4.313,5.385,3.382,8.773c-1.536,5.604-3.12,11.191-4.689,16.788c-0.233,0.825-0.377,1.701-0.756,2.457
					c-2.676,5.356-5.326,10.722-8.136,16.005c-2.165,4.078-4.564,8.03-6.83,12.053c-2.085,3.705-4.188,7.4-6.184,11.153
					c-4.541,8.532-8.858,17.188-13.568,25.622c-4.504,8.063-9.605,15.793-14.05,23.888c-4.154,7.568-7.794,15.417-11.641,23.151
					c-0.188,0.372-0.201,0.834-0.297,1.256c3.022-3.214,5.96-6.392,8.302-9.961c4.583-6.986,8.763-14.232,13.237-21.289
					c7.074-11.155,13.845-22.465,19.116-34.625c1.213-2.798,2.791-5.485,4.516-8.013c1.807-2.643,4.035-5.001,6.01-7.537
					c3.313-4.264,7.295-7.588,12.568-9.13c3.921-1.145,8.103,2.729,7.59,6.858c-0.559,4.463-0.941,8.946-1.398,13.42l0.557,0.117
					c1.233-2.612,2.764-5.126,3.643-7.854c3.162-9.822,6.227-19.681,9.1-29.593c4.583-15.815,8.768-31.748,13.537-47.507
					c3.73-12.318,8.014-24.482,12.208-36.655c1.035-3.004,1.586-4.386,2.717-5.052C721.069,688.485,721.633,679.986,723.375,671.398
					z"/>
				<path fill="#BC8475" d="M791.301,471.315c-0.014-0.016-0.031-0.029-0.045-0.044C791.27,471.286,791.287,471.298,791.301,471.315
					z"/>
				<path fill="#BC8475" d="M791.064,471.098c-0.006-0.005-0.012-0.009-0.018-0.013
					C791.052,471.089,791.058,471.094,791.064,471.098z"/>
			</g>
			<path fill="#7F451D" d="M823.232,626.567c-0.638,0.579-1.107,1.349-1.762,1.902c-2.565,2.172-5.107,4.383-7.787,6.405
				c-2.837,2.141-5.822,4.087-8.646,6.055c-1.128-1.059-1.858-1.743-2.591-2.431c1.347-1.384,2.718-2.771,4.06-4.185
				c0.848-0.889,0.708-1.725-0.533-1.845c-1.801-0.166-3.638-0.166-5.442-0.026c-1.681,0.13-3.341,0.542-5.011,0.831
				c10.907-4.299,21.144-9.328,27.452-19.887c-10.187,6.075-19.517,13.738-31.611,16.435c-1.095-3.474-4.135-1.541-6.001-1.908
				c4.689-2.094,9.686-4.034,14.391-6.527c3.393-1.796,6.542-4.147,9.526-6.59c1.857-1.52,3.395-3.574,3.194-7.097
				c-11.015,5.169-20.47,12.735-32.797,15.652c3.478-3.025,6.893-5.326,7.895-9.851c-8.297,0.814-14.307,6.555-21.637,9.136
				c0.557-0.579,1.211-0.958,1.889-1.289c8.166-3.987,14.998-9.696,20.744-16.634c2.056-2.481,3.346-5.602,4.96-8.448
				c0.207-0.363,0.258-0.818,0.402-1.302c-10.437,8.211-19.408,16.998-31.503,22.707c0.641-1.46,1.029-2.389,1.453-3.304
				c3.531-7.612,5.961-15.581,7.772-23.755c0.357-1.612,0.373-3.317,0.871-4.879c1.018-3.209,2.226-6.354,3.407-9.506
				c1.535-4.088,0.523-8.667,2.57-12.677c0.754-1.479,1.178-3.167,1.536-4.804c3.282-14.942,6.743-29.853,9.691-44.861
				c2.345-11.943,3.787-24.037,2.831-36.268c-0.156-1.96-0.426-3.943-0.958-5.827c-0.191-0.676-1.238-1.109-1.932-1.642
				c-2.803,53.21-15.078,151.594-66.29,201.251c-1.741,8.588-2.306,17.087-2.13,25.117c1.063-0.624,2.64-0.617,5.634-0.71
				c7.671-0.245,15.355-0.63,22.989-1.406c5.681-0.581,11.051-2.415,14.993-6.978c1.818-2.106,3.6-4.246,5.301-6.443
				c3.68-4.748,7.102-9.707,10.995-14.267c3.361-3.939,7.323-7.358,10.836-11.175c2.649-2.873,5.695-4.907,9.354-6.299
				c3.892-1.475,7.699-3.227,11.394-5.157c6.758-3.523,10.429-9.393,11.957-16.715c0.07-0.343-0.108-0.951-0.361-1.093
				C824.091,626.133,823.498,626.328,823.232,626.567z"/>
			<circle fill="#FFFFFF" cx="538.494" cy="418.615" r="4.804"/>
			<circle fill="#FFFFFF" cx="708.121" cy="425.544" r="4.805"/>
			<path fill="#59A3DA" d="M427.074,744.038c0,0-72.497,24.43-116.777,30.43c-44.28,6-132.801,16.47-165.744,55.591
				c-32.943,39.121-79.269,138.787-111.183,289.7c376.784,118.998,772.099,34.51,858.574,3.662
				c-12.354-95.703-45.251-163.986-92.779-195.563c-47.526-31.575-112.146-111.996-112.146-111.996
				c-19.499,128.466,5.942,150.447-139.094,205.677C433.833,925.799,392.521,835.085,427.074,744.038z"/>
			<path fill="#3E5BA9" d="M747.196,888.792c-2.24-2.946-4.197-6.142-6.657-8.891c-5.693-6.363-11.629-12.509-17.42-18.785
				c-0.529-0.575-1.226-1.688-1.005-2.137c1.188-2.435,0.1-4.142-1.46-5.783c-4.579-4.804-8.578-10.01-11.647-15.944
				c-2.417-4.68-5.114-9.22-7.732-13.792c-1.58-2.762-3.788-4.817-7.037-5.33c-1.668-0.261-3.577-0.597-4.295,2.145
				c-0.4-0.728-0.116-1.579-0.421-1.993c-0.677-0.922-1.651-1.626-2.503-2.419c-0.728,0.896-1.477,1.774-2.164,2.7
				c-0.156,0.21-0.108,0.573-0.135,0.872c-1.21,13.456-2.845,26.891-3.498,40.373c-0.602,12.376-2.788,24.334-6.821,35.963
				c-1.276,3.682-4.291,6.911-4.933,10.622c-0.898,5.166-3.892,8.65-6.887,12.391c-3.292,4.114-6.281,8.492-9.789,12.403
				c-4.702,5.248-9.84,10.102-14.669,15.234c-4.16,4.425-7.958,9.209-12.26,13.486c-14.93,14.862-32.069,26.599-51.116,35.596
				c-2.939,1.387-5.65,3.266-8.442,4.959c-5.106,3.098-10.19,6.223-15.183,9.276c-2.896-3.532-5.925-6.29-6.596-10.498
				c-0.034-0.212-0.169-0.418-0.299-0.599c-3.353-4.616-6.62-9.297-10.096-13.816c-3.344-4.344-7.426-8.196-10.287-12.816
				c-16.342-26.404-32.371-52.999-48.594-79.474c-9.542-15.574-19.247-31.044-28.877-46.559c-0.742-1.196-1.627-2.329-2.193-3.601
				c-2.643-5.958-5.242-11.94-7.756-17.952c-0.735-1.754-1.577-3.634-1.62-5.476c-0.156-6.529-0.028-13.069,0.07-19.602
				c0.103-6.829,0.25-13.661,0.479-20.49c0.07-2.065,0.371-4.133,0.739-6.17c2.3-12.743,9.129-23.251,16.629-33.402
				c1.93-2.608,2.767-5.934,5.394-8.077c0.293-0.234,0.318-0.796,0.431-1.102c-1.24-2.006-2.839-2.49-5.008-1.876
				c-5.07,1.438-10.164,2.798-15.279,4.061c-5.191,1.281-10.491,2.161-15.612,3.663c-7.435,2.178-14.453,5.288-20.591,10.226
				c-2.699,2.17-5.567,4.427-8.743,5.648c-6.512,2.504-13.208,4.618-19.959,6.389c-15.749,4.138-31.532,8.165-47.387,11.876
				c-11.218,2.625-21.812,4.607-33.342,6.046c-0.524,0.064-0.996,0.533-1.495,0.814c0.096,0.272,0.187,3.459,0.279,3.726
				c31.934-3.01,63.107-10.045,94.197-18.436c-3.373,7.988-4.384,16.313-5.339,24.664c-1.4,12.25-2.785,24.478-2.349,36.868
				c0.223,6.347,0.089,12.834-0.977,19.071c-1.872,10.961-4.656,21.765-6.914,32.667c-1.384,6.67-2.518,13.394-3.721,20.104
				c-0.545,3.041-0.983,6.104-1.45,9.037c-4.014,0.708-4.727,2.65-2.398,5.591c0.277,0.349,0.542,0.736,0.895,0.989
				c2.886,2.083,5.576,4.582,8.733,6.106c7.345,3.548,14.865,6.752,22.415,9.851c5.932,2.439,12.164,3.769,18.859,3.611
				c1.827,10.51,3.701,20.884,5.382,31.286c0.363,2.238,1.029,3.82,3.436,4.153c0.017,0.82,0.032,1.482,0.046,2.147
				c0.09,3.976,1.521,5.472,5.436,5.763c0.578,0.046,1.143,0.277,1.712,0.429c3.208,0.867,6.405,1.792,9.632,2.59
				c2.939,0.723,5.942,1.198,8.86,1.986c2.426,0.655,4.769,1.617,7.152,2.428c4.917,1.667,10.065,2.859,14.695,5.118
				c4.849,2.36,9.392,5.293,14.538,7.175c6.604,2.411,12.955,5.509,19.536,7.993c6.554,2.473,12.783,5.631,17.696,10.512
				c6.29,6.255,11.952,13.148,17.789,19.849c1.428,1.643,2.868,3.092,5.122,3.121c0.982,0.015,1.961-0.683,2.961-0.736
				c7.632-0.412,15.267-0.827,22.905-1.075c6.341-0.206,12.52-0.951,18.686-2.693c6.414-1.813,13.043-2.973,19.646-3.963
				c5.189-0.776,10.5-0.692,15.724-1.28c9.946-1.119,19.625-3.424,28.732-7.67c2.026-0.946,4.192-2.302,5.441-4.074
				c4.489-6.356,9.05-12.67,11.468-20.289c1.239-3.903,3.451-7.511,5.325-11.2c1.677-3.308,3.791-6.429,5.125-9.862
				c0.702-1.8,1.388-2.346,3.172-2.419c6.008-0.245,12.029-0.473,18.009-1.059c3.818-0.374,4.385-2.225,2.259-4.799
				c3.144-15.999,5.96-31.789,9.401-47.434c3.492-15.868,2.942-32.037,4.028-48.089c0.244-0.029,0.487-0.057,0.729-0.08
				c0.514,0.515,1.015,1.042,1.545,1.541c6.525,6.172,12.94,12.467,19.636,18.445c2.956,2.64,6.455,4.675,9.777,6.88
				c0.742,0.489,1.777,0.533,2.677,0.789c-0.209-0.964-0.167-2.099-0.678-2.859C749.851,891.782,748.404,890.376,747.196,888.792z"
				/>
			<g>
				<g>
					<path fill-rule="evenodd" clip-rule="evenodd" fill="#F4D8D0" d="M301.898,699.592c9.097-18.013,16.456-41.899,37.946-71.242
						c21.489-29.35,32.123-35.833,37.878-51.395c5.755-15.561,17.344-29.356,22.257-40.957c4.91-11.604,12.214-28.13,12.214-28.13
						s26.071,5.975,16.914,40.127c-9.156,34.146-30.242,63.472-17.672,82.728c70.668-19.92,152.882-44.467,170.928-52.987
						c18.044-8.519,43.932-13.232,62.306-19.253c18.373-6.021,33.558-1.192,33.037,13.354c16.959-3.502,30.939-1.953,34.188,8.059
						c3.25,10.017-42.61,35.802-42.61,35.802s28.159-7.307,33.151,0.716c4.991,8.024-10.397,17.764-26.709,28.731
						c-16.315,10.967-83.642,44.871-83.642,44.871s32.883-9.59,44.474-14.406c11.59-4.815,41.098,2.869,15.023,19.186
						c-26.078,16.317-60.49,31.319-87.29,46.691c-26.801,15.369-90.425,40.074-118.855,46.727
						c-28.43,6.655-51.397,13.958-62.341,28.003c-10.946,14.046-40.874,131.394-42.438,188.67
						c-69.406,20.079-139.879-25.621-139.879-25.621s14.859-142.087,52.32-201.86C290.558,717.634,291.547,720.087,301.898,699.592z
						"/>
					<g>
						<path fill="#BC8475" d="M632.527,662.174c-24.939,12.177-75.734,33.499-115.992,61.31c4.207-1.657,8.229-3.269,12.101-4.843
							c11.199-5.553,23.295-13.694,32.687-18.188c4.789-2.289,19.144-7.929,35.875-14.327c4.495-2.358,9.211-4.29,14.037-5.87
							c21.201-10.888,53.797-27.924,64.491-35.112c6.139-4.129,12.146-8.081,16.987-11.837
							C674.662,641.895,647.985,654.625,632.527,662.174z"/>
						<path fill="#BC8475" d="M651.58,694.795c9.511-5.952,11.623-10.755,9.909-14.223c-12.462,7.53-35.706,21.231-52.524,29.114
							c-24.043,11.273-76.194,38.876-104.427,47.311c-28.234,8.435-103.17,31.862-120.064,29.815
							c-16.893-2.046-26.206,8.806-28.903,29.244c-2.391,18.122-37.284,155.275-75.453,192.188
							c19.006,2.764,39.82,2.632,60.538-3.359c1.563-57.276,31.492-174.624,42.438-188.67
							c10.944-14.044,33.911-21.348,62.341-28.003c28.431-6.653,92.055-31.358,118.855-46.727
							C591.09,726.115,625.502,711.112,651.58,694.795z"/>
						<path fill="#BC8475" d="M629.55,585.862c-23.519,11.277-111.646,45.588-122.822,58.612
							c43.701-14.68,89.459-30.202,107.334-40.545c17.876-10.341,52.827-29.212,64.479-32.256c0.003,0,0.006-0.002,0.01-0.004
							c3.46-0.684,6.786-1.15,9.918-1.374c0.004-0.004,0.009-0.005,0.013-0.007c-3.39,0.243-7.009,0.772-10.776,1.547
							c0.233-6.529-2.704-11.096-7.667-13.605C660.216,566.452,644.297,578.791,629.55,585.862z"/>
						<path fill="#BC8475" d="M682.899,613.171c-6.797,0.82-12.845,2.329-13.543,2.508c0.728-0.184,6.757-1.687,13.527-2.501
							C682.89,613.175,682.894,613.175,682.899,613.171z"/>
						<path fill="#BC8475" d="M711.895,579.895c-0.708-2.181-1.926-3.96-3.574-5.375c-13.92,11.949-34.666,28.615-48.803,34.825
							c-23.039,10.118-68.23,31.146-84.954,39.596c-12.304,6.219-29.691,22.156-36.947,29.461c0.721-0.391,1.49-0.712,2.266-0.984
							c27.438-20.873,102.593-50.312,130.735-62.484l0.005-0.004c-0.856,0.493-1.34,0.767-1.34,0.767
							S715.145,589.912,711.895,579.895z"/>
					</g>
					<g>
						<g>
							<path fill-rule="evenodd" clip-rule="evenodd" fill="#EA537E" d="M417.27,505.327c0,0,7.533,10.287,2.993,19.364
								c-4.541,9.078-8.026,10.779-17.428,12.205C402.92,522.139,406.167,503.087,417.27,505.327z"/>
							<path fill-rule="evenodd" clip-rule="evenodd" fill="#EA537E" d="M684.567,562.857c-1.664-5.015-17.95-8.177-25.771-4.008
								c-7.822,4.171-11.907,11.772-7.913,16.678c3.993,4.904,23.834-2.36,29.913-5.866
								C686.875,566.158,684.567,562.857,684.567,562.857z"/>
							<path fill-rule="evenodd" clip-rule="evenodd" fill="#EA537E" d="M715.811,577.127c-1.47-4.294-19.198-5.59-26.827-1.896
								c-7.625,3.692-13.589,11.493-10.733,16.25c2.853,4.757,13.358,7.436,23.073,2.953
								C711.038,589.947,718.075,583.734,715.811,577.127z"/>
							<path fill-rule="evenodd" clip-rule="evenodd" fill="#EA537E" d="M707.068,615.911c-5.212-0.955-16.283-2.44-24.55,0.42
								c-8.266,2.859-15.738,13.153-11.952,17.107c3.787,3.952,19.18-0.349,28.631-5.392
								C708.647,623.004,708.336,616.143,707.068,615.911z"/>
							<path fill-rule="evenodd" clip-rule="evenodd" fill="#EA537E" d="M663.494,677.925c-2.945-5.624-12.864-5.164-20.643-1.163
								c-7.778,3.999-11.217,9.583-9.381,13.845c1.836,4.259,11.281,5.586,18.541,1.827c7.261-3.764,14.32-6.721,12.758-13.792"/>
						</g>
					</g>
				</g>
				<g>
					<path fill-rule="evenodd" clip-rule="evenodd" fill="#F4D8D0" d="M905.959,760.411c-3.801-19.821-4.315-44.809-16.916-78.926
						c-12.602-34.118-21.046-43.277-22.304-59.819c-1.259-16.545-8.616-32.997-10.149-45.505c-1.535-12.503-4.018-30.4-4.018-30.4
						s-26.709-1.415-27.284,33.933c-0.577,35.358,11.64,69.345-5.733,84.404c-62.477-38.564-134.787-84.754-149.798-97.902
						c-15.012-13.145-38.609-24.786-54.622-35.624c-16.014-10.837-31.939-10.366-35.435,3.767
						c-15.344-8.029-29.211-10.378-35.086-1.642c-5.876,8.737,31.138,46.121,31.138,46.121s-25.07-14.762-32.073-8.418
						c-7.002,6.344,5.119,19.936,17.791,34.966c12.673,15.028,68.097,66.122,68.097,66.122s-28.985-18.252-38.806-26.068
						c-9.821-7.813-40.305-8.532-19.714,14.322c20.59,22.853,49.559,46.731,71.107,68.872
						c21.546,22.14,75.938,63.371,101.445,77.579c25.509,14.209,45.587,27.541,52.254,44.049
						c6.665,16.512,2.076,149.186-12.156,204.688c61.221,38.374,141.536,13.791,141.536,13.791s25.875-152.322,6.274-220.084
						C911.907,780.873,910.282,782.962,905.959,760.411z"/>
					<path fill-rule="evenodd" clip-rule="evenodd" fill="#EA537E" d="M848.389,541.925c0,0-10.07,7.82-8.199,17.795
						c1.873,9.973,4.756,12.567,13.406,16.519C857.568,562.03,859.678,542.822,848.389,541.925z"/>
					<g>
						<path fill="#BC8475" d="M669.756,566.197c-15.012-13.145-38.609-24.786-54.622-35.624c-10.906-7.38-21.766-9.51-28.692-5.657
							c7.207,2.261,16.063,5.341,21.384,8.289c10.122,5.607,63.296,42.174,87.958,59.575c24.661,17.403,64.33,38.601,67.947,59.879
							c0.494-9.127-6.079-17.237-6.079-17.237s40.542,21.908,61.902,28.676C757.076,625.534,684.766,579.344,669.756,566.197z"/>
						<path fill="#BC8475" d="M555.659,527.166c2.959,0.483,5.915,1.666,8.513,3.991c10.144,9.075,19.411,17.108,30.384,28.323
							c10.975,11.217,103.659,98.721,129.594,91.664c-37.989-26.115-77.722-53.614-92.072-68.471
							c-14.347-14.85-42.77-42.592-53.137-48.721c-0.003,0-0.005-0.004-0.009-0.004C570.27,529.508,562.119,526.92,555.659,527.166z
							"/>
						<path fill="#BC8475" d="M905.959,760.411c-3.801-19.821-4.315-44.809-16.916-78.926
							c-12.602-34.118-21.046-43.277-22.304-59.819c-0.919-12.069-5.076-24.084-7.856-34.559
							c-0.866,6.987-3.077,12.869-7.852,15.463c9.589,6.714,6.61,16.987,11.416,27.315c4.807,10.33,21.792,39.477,22.168,59.961
							c0.377,20.486-15.929,42.686-12.448,54.748c3.483,12.06,12.298,27.745,25.763,45.261
							c12.648,16.456,0.41,225.809-39.426,286.454c37.038,1.5,66.729-7.588,66.729-7.588s25.875-152.322,6.274-220.084
							C911.907,780.873,910.282,782.962,905.959,760.411z"/>
						<path fill="#BC8475" d="M658.719,652.04c13.481,10.244,28.481,27.678,28.481,27.678
							c-14.449-25.854-86.975-81.062-112.524-102.002c-0.001,0-0.002-0.002-0.003-0.004c0.687,0.71,1.078,1.106,1.078,1.106
							s-16.823-9.901-26.756-9.994c5.424,1.52,11.985,5.322,21.019,11.985C585.016,591.877,645.238,641.8,658.719,652.04z"/>
						<path fill="#BC8475" d="M647.792,688.053c12.521,9.972,24.52,24.887,45.224,36.372c-12.232-7.373-26.001-24.943-36.74-34.448
							c-4.754-4.207-21.351-16.78-39.181-30.076c7.408,6.922,12.47,11.587,12.47,11.587s-13.567-8.543-25.282-16.443
							C621.744,668.105,640.734,682.432,647.792,688.053z"/>
						<path fill="#BC8475" d="M693.016,724.424c0.862,0.52,1.715,0.993,2.559,1.402C694.699,725.37,693.862,724.895,693.016,724.424
							z"/>
					</g>
					<path fill-rule="evenodd" clip-rule="evenodd" fill="#EA537E" d="M575.568,523.82c2.978-4.365,19.507-2.933,25.883,3.225
						c6.375,6.16,8.214,14.59,3.027,18.21c-5.188,3.618-22.269-8.817-27.152-13.857C572.444,526.36,575.568,523.82,575.568,523.82z"
						/>
					<path fill-rule="evenodd" clip-rule="evenodd" fill="#EA537E" d="M541.606,528.957c2.595-3.725,19.997-0.101,26.315,5.547
						c6.32,5.646,9.91,14.783,5.859,18.573c-4.051,3.788-14.888,3.479-22.996-3.501
						C542.675,542.594,537.617,534.689,541.606,528.957z"/>
					<path fill-rule="evenodd" clip-rule="evenodd" fill="#EA537E" d="M539.362,568.644c5.273,0.515,16.327,2.126,23.49,7.145
						c7.163,5.021,11.519,16.974,6.793,19.736s-18.345-5.606-26.048-13.053C535.894,575.03,538.081,568.52,539.362,568.644z"/>
					<path fill-rule="evenodd" clip-rule="evenodd" fill="#EA537E" d="M564.224,640.248c4.376-4.602,13.786-1.431,20.167,4.551
						c6.381,5.984,8.155,12.297,5.218,15.89c-2.936,3.594-12.383,2.274-18.33-3.339c-5.948-5.609-11.924-10.394-8.482-16.76"/>
				</g>
			</g>
		</g>
	</g>
</g>
</svg>
